<svg width="64" height="65" viewBox="0 0 64 65" fill="none" xmlns="http://www.w3.org/2000/svg">
<path d="M0 32.5757C0 14.9026 14.3269 0.575684 32 0.575684C49.6731 0.575684 64 14.9026 64 32.5757C64 50.2488 49.6731 64.5757 32 64.5757C14.3269 64.5757 0 50.2488 0 32.5757Z" fill="url(#paint0_radial_1_7144)"/>
<g clip-path="url(#clip0_1_7144)">
<path d="M38 29.5757H26C25.175 29.5757 24.5 30.2507 24.5 31.0757C24.5 31.9007 25.175 32.5757 26 32.5757H38C38.825 32.5757 39.5 31.9007 39.5 31.0757C39.5 30.2507 38.825 29.5757 38 29.5757ZM42.5 19.0757H41V17.5757C41 16.7507 40.325 16.0757 39.5 16.0757C38.675 16.0757 38 16.7507 38 17.5757V19.0757H26V17.5757C26 16.7507 25.325 16.0757 24.5 16.0757C23.675 16.0757 23 16.7507 23 17.5757V19.0757H21.5C19.835 19.0757 18.5 20.4257 18.5 22.0757V43.0757C18.5 44.7257 19.835 46.0757 21.5 46.0757H42.5C44.15 46.0757 45.5 44.7257 45.5 43.0757V22.0757C45.5 20.4257 44.15 19.0757 42.5 19.0757ZM41 43.0757H23C22.175 43.0757 21.5 42.4007 21.5 41.5757V26.5757H42.5V41.5757C42.5 42.4007 41.825 43.0757 41 43.0757ZM33.5 35.5757H26C25.175 35.5757 24.5 36.2507 24.5 37.0757C24.5 37.9007 25.175 38.5757 26 38.5757H33.5C34.325 38.5757 35 37.9007 35 37.0757C35 36.2507 34.325 35.5757 33.5 35.5757Z" fill="white"/>
</g>
<defs>
<radialGradient id="paint0_radial_1_7144" cx="0" cy="0" r="1" gradientUnits="userSpaceOnUse" gradientTransform="translate(64 0.575679) rotate(112.23) scale(95.4583 223.205)">
<stop offset="0.0420757" stop-color="#13B4EE"/>
<stop offset="0.735" stop-color="#2DF8FA"/>
</radialGradient>
<clipPath id="clip0_1_7144">
<rect width="36" height="36" fill="white" transform="translate(14 14.5757)"/>
</clipPath>
</defs>
</svg>
