<svg width="64" height="65" viewBox="0 0 64 65" fill="none" xmlns="http://www.w3.org/2000/svg">
<path d="M0 32.5757C0 14.9026 14.3269 0.575684 32 0.575684C49.6731 0.575684 64 14.9026 64 32.5757C64 50.2488 49.6731 64.5757 32 64.5757C14.3269 64.5757 0 50.2488 0 32.5757Z" fill="url(#paint0_radial_1_7136)"/>
<g clip-path="url(#clip0_1_7136)">
<path d="M14.5 20.3257C15.4625 20.3257 16.25 21.1132 16.25 22.0757V43.0757C16.25 44.0382 15.4625 44.8257 14.5 44.8257C13.5375 44.8257 12.75 44.0382 12.75 43.0757V22.0757C12.75 21.1132 13.5375 20.3257 14.5 20.3257ZM21.5 20.3257C22.4625 20.3257 23.25 21.1132 23.25 22.0757V43.0757C23.25 44.0382 22.4625 44.8257 21.5 44.8257C20.5375 44.8257 19.75 44.0382 19.75 43.0757V22.0757C19.75 21.1132 20.5375 20.3257 21.5 20.3257ZM49.5 20.3257H28.5C27.5375 20.3257 26.75 21.1132 26.75 22.0757V43.0757C26.75 44.0382 27.5375 44.8257 28.5 44.8257H49.5C50.4625 44.8257 51.25 44.0382 51.25 43.0757V22.0757C51.25 21.1132 50.4625 20.3257 49.5 20.3257ZM31.37 39.9082L33.9425 36.6532C34.2925 36.2157 34.94 36.2157 35.3075 36.6357L37.7575 39.5757L41.4325 34.8332C41.7825 34.3782 42.465 34.3782 42.815 34.8332L46.6825 39.9082C47.12 40.4857 46.7175 41.3082 45.9825 41.3082H32.0525C31.335 41.3257 30.915 40.4857 31.37 39.9082Z" fill="white"/>
</g>
<defs>
<radialGradient id="paint0_radial_1_7136" cx="0" cy="0" r="1" gradientUnits="userSpaceOnUse" gradientTransform="translate(64 0.575679) rotate(112.23) scale(95.4583 223.205)">
<stop offset="0.0420757" stop-color="#13B4EE"/>
<stop offset="0.735" stop-color="#2DF8FA"/>
</radialGradient>
<clipPath id="clip0_1_7136">
<rect width="42" height="42" fill="white" transform="translate(11 11.5757)"/>
</clipPath>
</defs>
</svg>
