<svg width="64" height="65" viewBox="0 0 64 65" fill="none" xmlns="http://www.w3.org/2000/svg">
<path d="M0 32.5757C0 14.9026 14.3269 0.575684 32 0.575684C49.6731 0.575684 64 14.9026 64 32.5757C64 50.2488 49.6731 64.5757 32 64.5757C14.3269 64.5757 0 50.2488 0 32.5757Z" fill="url(#paint0_radial_1_7156)"/>
<path d="M39.5 19.0757H24.5C22.85 19.0757 21.5 20.4257 21.5 22.0757V43.0757C21.5 44.7257 22.85 46.0757 24.5 46.0757H39.5C41.15 46.0757 42.5 44.7257 42.5 43.0757V22.0757C42.5 20.4257 41.15 19.0757 39.5 19.0757ZM39.5 37.8257C39.5 35.3207 34.505 34.0757 32 34.0757C29.495 34.0757 24.5 35.3207 24.5 37.8257V23.5757C24.5 22.7507 25.175 22.0757 26 22.0757H38C38.825 22.0757 39.5 22.7507 39.5 23.5757V37.8257ZM32 31.0757C33.65 31.0757 35 29.7257 35 28.0757C35 26.4257 33.65 25.0757 32 25.0757C30.35 25.0757 29.015 26.4257 29.015 28.0757C29.015 29.7257 30.35 31.0757 32 31.0757Z" fill="white"/>
<defs>
<radialGradient id="paint0_radial_1_7156" cx="0" cy="0" r="1" gradientUnits="userSpaceOnUse" gradientTransform="translate(64 0.575679) rotate(112.23) scale(95.4583 223.205)">
<stop offset="0.0420757" stop-color="#13B4EE"/>
<stop offset="0.735" stop-color="#2DF8FA"/>
</radialGradient>
</defs>
</svg>
