<svg width="64" height="65" viewBox="0 0 64 65" fill="none" xmlns="http://www.w3.org/2000/svg">
<path d="M0 32.5757C0 14.9026 14.3269 0.575684 32 0.575684C49.6731 0.575684 64 14.9026 64 32.5757C64 50.2488 49.6731 64.5757 32 64.5757C14.3269 64.5757 0 50.2488 0 32.5757Z" fill="url(#paint0_radial_1_7152)"/>
<path d="M50 34.5757H38C36.9 34.5757 36 33.6757 36 32.5757C36 31.4757 36.9 30.5757 38 30.5757H50C51.1 30.5757 52 31.4757 52 32.5757C52 33.6757 51.1 34.5757 50 34.5757ZM50 22.5757H38C36.9 22.5757 36 23.4757 36 24.5757C36 25.6757 36.9 26.5757 38 26.5757H50C51.1 26.5757 52 25.6757 52 24.5757C52 23.4757 51.1 22.5757 50 22.5757ZM38 42.5757H50C51.1 42.5757 52 41.6757 52 40.5757C52 39.4757 51.1 38.5757 50 38.5757H38C36.9 38.5757 36 39.4757 36 40.5757C36 41.6757 36.9 42.5757 38 42.5757ZM32 26.5757V38.5757C32 40.7757 30.2 42.5757 28 42.5757H16C13.8 42.5757 12 40.7757 12 38.5757V26.5757C12 24.3757 13.8 22.5757 16 22.5757H28C30.2 22.5757 32 24.3757 32 26.5757ZM27.8 36.9757L25.28 33.6157C24.88 33.0957 24.1 33.0757 23.68 33.5957L21 37.0957L19.3 35.0357C18.9 34.5357 18.14 34.5557 17.74 35.0557L16.26 36.9557C15.74 37.6157 16.22 38.5757 17.04 38.5757H27C27.82 38.5757 28.3 37.6357 27.8 36.9757Z" fill="#323232"/>
<path d="M50 34.5757H38C36.9 34.5757 36 33.6757 36 32.5757C36 31.4757 36.9 30.5757 38 30.5757H50C51.1 30.5757 52 31.4757 52 32.5757C52 33.6757 51.1 34.5757 50 34.5757ZM50 22.5757H38C36.9 22.5757 36 23.4757 36 24.5757C36 25.6757 36.9 26.5757 38 26.5757H50C51.1 26.5757 52 25.6757 52 24.5757C52 23.4757 51.1 22.5757 50 22.5757ZM38 42.5757H50C51.1 42.5757 52 41.6757 52 40.5757C52 39.4757 51.1 38.5757 50 38.5757H38C36.9 38.5757 36 39.4757 36 40.5757C36 41.6757 36.9 42.5757 38 42.5757ZM32 26.5757V38.5757C32 40.7757 30.2 42.5757 28 42.5757H16C13.8 42.5757 12 40.7757 12 38.5757V26.5757C12 24.3757 13.8 22.5757 16 22.5757H28C30.2 22.5757 32 24.3757 32 26.5757ZM27.8 36.9757L25.28 33.6157C24.88 33.0957 24.1 33.0757 23.68 33.5957L21 37.0957L19.3 35.0357C18.9 34.5357 18.14 34.5557 17.74 35.0557L16.26 36.9557C15.74 37.6157 16.22 38.5757 17.04 38.5757H27C27.82 38.5757 28.3 37.6357 27.8 36.9757Z" fill="white"/>
<defs>
<radialGradient id="paint0_radial_1_7152" cx="0" cy="0" r="1" gradientUnits="userSpaceOnUse" gradientTransform="translate(64 0.575679) rotate(112.23) scale(95.4583 223.205)">
<stop offset="0.0420757" stop-color="#13B4EE"/>
<stop offset="0.735" stop-color="#2DF8FA"/>
</radialGradient>
</defs>
</svg>
