<svg width="64" height="65" viewBox="0 0 64 65" fill="none" xmlns="http://www.w3.org/2000/svg">
<path d="M0 32.5757C0 14.9026 14.3269 0.575684 32 0.575684C49.6731 0.575684 64 14.9026 64 32.5757C64 50.2488 49.6731 64.5757 32 64.5757C14.3269 64.5757 0 50.2488 0 32.5757Z" fill="url(#paint0_radial_1_7132)"/>
<g clip-path="url(#clip0_1_7132)">
<path d="M42.5 19.0757H36.23C35.6 17.3357 33.95 16.0757 32 16.0757C30.05 16.0757 28.4 17.3357 27.77 19.0757H21.5C19.85 19.0757 18.5 20.4257 18.5 22.0757V43.0757C18.5 44.7257 19.85 46.0757 21.5 46.0757H42.5C44.15 46.0757 45.5 44.7257 45.5 43.0757V22.0757C45.5 20.4257 44.15 19.0757 42.5 19.0757ZM32 19.0757C32.825 19.0757 33.5 19.7507 33.5 20.5757C33.5 21.4007 32.825 22.0757 32 22.0757C31.175 22.0757 30.5 21.4007 30.5 20.5757C30.5 19.7507 31.175 19.0757 32 19.0757ZM33.5 40.0757H26C25.175 40.0757 24.5 39.4007 24.5 38.5757C24.5 37.7507 25.175 37.0757 26 37.0757H33.5C34.325 37.0757 35 37.7507 35 38.5757C35 39.4007 34.325 40.0757 33.5 40.0757ZM38 34.0757H26C25.175 34.0757 24.5 33.4007 24.5 32.5757C24.5 31.7507 25.175 31.0757 26 31.0757H38C38.825 31.0757 39.5 31.7507 39.5 32.5757C39.5 33.4007 38.825 34.0757 38 34.0757ZM38 28.0757H26C25.175 28.0757 24.5 27.4007 24.5 26.5757C24.5 25.7507 25.175 25.0757 26 25.0757H38C38.825 25.0757 39.5 25.7507 39.5 26.5757C39.5 27.4007 38.825 28.0757 38 28.0757Z" fill="white"/>
</g>
<defs>
<radialGradient id="paint0_radial_1_7132" cx="0" cy="0" r="1" gradientUnits="userSpaceOnUse" gradientTransform="translate(64 0.575679) rotate(112.23) scale(95.4583 223.205)">
<stop offset="0.0420757" stop-color="#13B4EE"/>
<stop offset="0.735" stop-color="#2DF8FA"/>
</radialGradient>
<clipPath id="clip0_1_7132">
<rect width="36" height="36" fill="white" transform="translate(14 14.5757)"/>
</clipPath>
</defs>
</svg>
