<svg width="24" height="24" fill="none" xmlns="http://www.w3.org/2000/svg"><g clip-path="url(#a)"><path d="m16.278 2.141-.83 2.702C8.007.174 2.958 4.724 2.958 4.724-1.638 8.564.49 14.678.495 14.678 1.252-.016 14.24 8.943 14.24 8.943c-.237 1.066-.996 2.63-.972 2.654l8.508-1.256-5.498-8.2zm7.228 7.181C22.747 24.016 9.76 15.057 9.76 15.057c.332-1.066 1.02-2.654 1.02-2.607l-8.51 1.21 5.451 8.2.83-2.702c7.441 4.67 12.49.12 12.49.12 4.597-3.84 2.464-9.955 2.464-9.955h.001z" fill="#6751D1"/></g><defs><clipPath id="a"><path fill="#fff" d="M0 0h24v24H0z"/></clipPath></defs></svg>