<svg width="64" height="65" viewBox="0 0 64 65" fill="none" xmlns="http://www.w3.org/2000/svg">
<path d="M0 32.5757C0 14.9026 14.3269 0.575684 32 0.575684C49.6731 0.575684 64 14.9026 64 32.5757C64 50.2488 49.6731 64.5757 32 64.5757C14.3269 64.5757 0 50.2488 0 32.5757Z" fill="url(#paint0_radial_1_7164)"/>
<g clip-path="url(#clip0_1_7164)">
<path d="M45.5 20.5757H18.5C16.85 20.5757 15.5 21.9257 15.5 23.5757V43.0757C15.5 44.7257 16.85 46.0757 18.5 46.0757H45.5C47.15 46.0757 48.5 44.7257 48.5 43.0757V23.5757C48.5 21.9257 47.15 20.5757 45.5 20.5757ZM45.5 41.5757C45.5 42.4007 44.825 43.0757 44 43.0757H32V23.5757H44C44.825 23.5757 45.5 24.2507 45.5 25.0757V41.5757ZM42.875 28.8257H34.625C34.01 28.8257 33.5 29.3357 33.5 29.9507C33.5 30.5657 34.01 31.0757 34.625 31.0757H42.875C43.49 31.0757 44 30.5657 44 29.9507C44 29.3357 43.49 28.8257 42.875 28.8257ZM42.875 32.5757H34.625C34.01 32.5757 33.5 33.0857 33.5 33.7007C33.5 34.3157 34.01 34.8257 34.625 34.8257H42.875C43.49 34.8257 44 34.3157 44 33.7007C44 33.0857 43.49 32.5757 42.875 32.5757ZM42.875 36.3257H34.625C34.01 36.3257 33.5 36.8357 33.5 37.4507C33.5 38.0657 34.01 38.5757 34.625 38.5757H42.875C43.49 38.5757 44 38.0657 44 37.4507C44 36.8357 43.49 36.3257 42.875 36.3257Z" fill="white"/>
</g>
<defs>
<radialGradient id="paint0_radial_1_7164" cx="0" cy="0" r="1" gradientUnits="userSpaceOnUse" gradientTransform="translate(64 0.575679) rotate(112.23) scale(95.4583 223.205)">
<stop offset="0.0420757" stop-color="#13B4EE"/>
<stop offset="0.735" stop-color="#2DF8FA"/>
</radialGradient>
<clipPath id="clip0_1_7164">
<rect width="36" height="36" fill="white" transform="translate(14 14.5757)"/>
</clipPath>
</defs>
</svg>
