<svg width="24" height="21" viewBox="0 0 24 21" fill="none" xmlns="http://www.w3.org/2000/svg">
<path fill-rule="evenodd" clip-rule="evenodd" d="M17.5906 0.45942C16.4219 0.332505 14.9488 0.332511 13.0696 0.33252H10.9304C9.0512 0.332511 7.57812 0.332505 6.40942 0.45942C5.21677 0.588936 4.25043 0.85798 3.42536 1.45883C2.92586 1.82258 2.4866 2.26287 2.12369 2.76353C1.95825 2.99177 1.81657 3.23284 1.69568 3.48941C1.32548 4.27513 1.16035 5.18623 1.07988 6.27271C0.999995 7.35122 0.999998 8.67327 1 10.3034V10.3789C0.999992 12.2626 0.999985 13.7391 1.12661 14.9105C1.25582 16.1059 1.52424 17.0745 2.12369 17.9015C2.4866 18.4022 2.92586 18.8425 3.42536 19.2062C4.25043 19.8071 5.21677 20.0761 6.40942 20.2056C7.57809 20.3325 9.05115 20.3325 10.9303 20.3325H13.0696C14.9488 20.3325 16.4219 20.3325 17.5906 20.2056C18.7832 20.0761 19.7496 19.8071 20.5746 19.2062C21.0741 18.8425 21.5134 18.4022 21.8763 17.9015C22.4758 17.0745 22.7442 16.1059 22.8734 14.9105C23 13.7391 23 12.2626 23 10.379V10.3027C23 8.66147 23 7.33237 22.9184 6.24949C22.8361 5.15822 22.6673 4.2441 22.2885 3.45607C22.171 3.21184 22.0345 2.98179 21.8763 2.76353C21.5134 2.26287 21.0741 1.82258 20.5746 1.45883C19.7496 0.85798 18.7832 0.588936 17.5906 0.45942ZM4.32754 2.70347C4.84736 2.32492 5.5127 2.10427 6.57474 1.98893C7.65116 1.87204 9.04118 1.87098 10.9767 1.87098H13.0233C14.9588 1.87098 16.3488 1.87204 17.4253 1.98893C18.4873 2.10427 19.1526 2.32492 19.6725 2.70347C20.0415 2.9722 20.366 3.29745 20.6342 3.66728L18.6928 5.61314C16.9721 7.33792 15.7349 8.57563 14.6679 9.39167C13.6185 10.1942 12.8244 10.516 12 10.516C11.1756 10.516 10.3815 10.1942 9.33212 9.39167C8.26506 8.57563 7.02792 7.33792 5.30715 5.61314L3.36582 3.66728C3.63398 3.29745 3.95852 2.9722 4.32754 2.70347ZM21.2475 5.22829C21.3093 5.55673 21.3552 5.9314 21.3879 6.36538C21.4646 7.38373 21.4651 8.65542 21.4651 10.3325C21.4651 12.2726 21.4641 13.6659 21.3474 14.7448C21.2324 15.8093 21.0122 16.4762 20.6346 16.9972C20.3663 17.3673 20.0417 17.6927 19.6725 17.9616C19.1526 18.3401 18.4873 18.5608 17.4253 18.6761C16.3488 18.793 14.9588 18.7941 13.0233 18.7941H10.9767C9.04118 18.7941 7.65116 18.793 6.57474 18.6761C5.5127 18.5608 4.84736 18.3401 4.32754 17.9616C3.95835 17.6927 3.63367 17.3673 3.36544 16.9972C2.98777 16.4762 2.76763 15.8093 2.65256 14.7448C2.53594 13.6659 2.53488 12.2726 2.53488 10.3325C2.53488 8.66734 2.53536 7.40169 2.61055 6.38661C2.64336 5.94364 2.68971 5.56211 2.75254 5.22829L4.26334 6.7426C5.93357 8.41675 7.2425 9.72874 8.40109 10.6148C9.58697 11.5217 10.7051 12.0545 12 12.0545C13.2949 12.0545 14.413 11.5217 15.5989 10.6148C16.7575 9.72874 18.0664 8.41676 19.7366 6.74263L21.2475 5.22829Z" fill="white" stroke="white" stroke-width="0.5"/>
</svg>
