<svg width="64" height="65" viewBox="0 0 64 65" fill="none" xmlns="http://www.w3.org/2000/svg">
<path d="M0 32.5757C0 14.9026 14.3269 0.575684 32 0.575684C49.6731 0.575684 64 14.9026 64 32.5757C64 50.2488 49.6731 64.5757 32 64.5757C14.3269 64.5757 0 50.2488 0 32.5757Z" fill="url(#paint0_radial_1_7148)"/>
<g clip-path="url(#clip0_1_7148)">
<path d="M40.25 21.3257C37.325 21.3257 34.175 21.9257 32 23.5757C29.825 21.9257 26.675 21.3257 23.75 21.3257C21.575 21.3257 19.265 21.6557 17.33 22.5107C16.235 23.0057 15.5 24.0707 15.5 25.2857V42.2057C15.5 44.1557 17.33 45.5957 19.22 45.1157C20.69 44.7407 22.25 44.5757 23.75 44.5757C26.09 44.5757 28.58 44.9657 30.59 45.9557C31.49 46.4057 32.51 46.4057 33.395 45.9557C35.405 44.9507 37.895 44.5757 40.235 44.5757C41.735 44.5757 43.295 44.7407 44.765 45.1157C46.655 45.6107 48.485 44.1707 48.485 42.2057V25.2857C48.485 24.0707 47.75 23.0057 46.655 22.5107C44.735 21.6557 42.425 21.3257 40.25 21.3257ZM45.5 40.4207C45.5 41.3657 44.63 42.0557 43.7 41.8907C42.575 41.6807 41.405 41.5907 40.25 41.5907C37.7 41.5907 34.025 42.5657 32 43.8407V26.5757C34.025 25.3007 37.7 24.3257 40.25 24.3257C41.63 24.3257 42.995 24.4607 44.3 24.7457C44.99 24.8957 45.5 25.5107 45.5 26.2157V40.4207Z" fill="white"/>
<path d="M34.97 31.0907C34.49 31.0907 34.055 30.7907 33.905 30.3107C33.71 29.7257 34.04 29.0807 34.625 28.9007C36.935 28.1507 39.92 27.9107 42.665 28.2257C43.28 28.3007 43.73 28.8557 43.655 29.4707C43.58 30.0857 43.025 30.5357 42.41 30.4607C39.98 30.1757 37.325 30.4007 35.315 31.0457C35.195 31.0607 35.075 31.0907 34.97 31.0907Z" fill="white"/>
<path d="M34.97 35.0807C34.49 35.0807 34.055 34.7807 33.905 34.3007C33.71 33.7157 34.04 33.0707 34.625 32.8907C36.92 32.1407 39.92 31.9007 42.665 32.2157C43.28 32.2907 43.73 32.8457 43.655 33.4607C43.58 34.0757 43.025 34.5257 42.41 34.4507C39.98 34.1657 37.325 34.3907 35.315 35.0357C35.195 35.0657 35.075 35.0807 34.97 35.0807Z" fill="white"/>
<path d="M34.97 39.0707C34.49 39.0707 34.055 38.7707 33.905 38.2907C33.71 37.7057 34.04 37.0607 34.625 36.8807C36.92 36.1307 39.92 35.8907 42.665 36.2057C43.28 36.2807 43.73 36.8357 43.655 37.4507C43.58 38.0657 43.025 38.5007 42.41 38.4407C39.98 38.1557 37.325 38.3807 35.315 39.0257C35.195 39.0557 35.075 39.0707 34.97 39.0707Z" fill="white"/>
</g>
<defs>
<radialGradient id="paint0_radial_1_7148" cx="0" cy="0" r="1" gradientUnits="userSpaceOnUse" gradientTransform="translate(64 0.575679) rotate(112.23) scale(95.4583 223.205)">
<stop offset="0.0420757" stop-color="#13B4EE"/>
<stop offset="0.735" stop-color="#2DF8FA"/>
</radialGradient>
<clipPath id="clip0_1_7148">
<rect width="36" height="36" fill="white" transform="translate(14 14.5757)"/>
</clipPath>
</defs>
</svg>
