<svg width="57" height="56" viewBox="0 0 57 56" fill="none" xmlns="http://www.w3.org/2000/svg">
<path fill-rule="evenodd" clip-rule="evenodd" d="M31.8017 8.82716C31.8017 10.1196 31.0028 11.225 29.8727 11.6746V15.7412H40.8162C43.6463 15.7412 46.2394 16.7584 48.2511 18.4479V15.7089H52.546V35.5185C52.546 46.038 47.8274 50.1271 40.4899 50.217V50.2349H16.1024C11.904 50.2349 8.09172 48.1472 5.92015 44.1176L6.00479 44.0712C6.67954 43.7006 9.03494 42.4073 9.58768 42.1756C10.9389 44.7002 13.593 46.0596 16.1024 46.0596H40.4899C44.9777 45.9709 47.9348 43.4552 48.2272 36.9098C46.2189 38.5873 43.6351 39.5965 40.8162 39.5965H16.366C9.96959 39.5965 4.7843 34.4006 4.7843 27.9912V27.3465C4.7843 20.937 9.96959 15.7412 16.366 15.7412H27.6208V11.6756C26.4894 11.2267 25.6892 10.1206 25.6892 8.82716C25.6892 7.13578 27.0575 5.76465 28.7454 5.76465C30.4334 5.76465 31.8017 7.13578 31.8017 8.82716ZM40.8162 20.2544H16.366C12.4571 20.2544 9.28828 23.4296 9.28828 27.3465V27.9912C9.28828 31.9081 12.4571 35.0833 16.366 35.0833H40.8162C44.725 35.0833 47.8938 31.9081 47.8938 27.9912V27.3465C47.8938 23.4296 44.7251 20.2544 40.8162 20.2544ZM35.2139 23.7934C35.3853 23.3443 36.0206 23.3443 36.192 23.7934C36.7366 25.2202 37.8779 26.3384 39.3153 26.8543C39.7778 27.0202 39.7778 27.6746 39.3153 27.8406C37.8779 28.3565 36.7366 29.4746 36.192 30.9015C36.0206 31.3506 35.3853 31.3506 35.2139 30.9015C34.6694 29.4746 33.5281 28.3565 32.0906 27.8406C31.6281 27.6746 31.6281 27.0202 32.0906 26.8543C33.5281 26.3384 34.6694 25.2202 35.2139 23.7934ZM21.7147 23.7934C21.5433 23.3443 20.908 23.3443 20.7366 23.7934C20.192 25.2202 19.0507 26.3384 17.6133 26.8543C17.1508 27.0202 17.1508 27.6746 17.6133 27.8406C19.0507 28.3565 20.192 29.4746 20.7366 30.9015C20.908 31.3506 21.5433 31.3506 21.7147 30.9015C22.2592 29.4746 23.4005 28.3565 24.838 27.8406C25.3005 27.6746 25.3005 27.0202 24.838 26.8543C23.4005 26.3384 22.2592 25.2202 21.7147 23.7934Z" fill="url(#paint0_radial_1_7113)"/>
<defs>
<radialGradient id="paint0_radial_1_7113" cx="0" cy="0" r="1" gradientUnits="userSpaceOnUse" gradientTransform="translate(42.6283 7.19621) rotate(125.016) scale(70.4 226.721)">
<stop offset="0.0420757" stop-color="#13B4EE"/>
<stop offset="0.735" stop-color="#2DF8FA"/>
</radialGradient>
</defs>
</svg>
