<svg width="50" height="50" viewBox="0 0 50 50" fill="none" xmlns="http://www.w3.org/2000/svg">
<g clip-path="url(#clip0_25_905)">
<path d="M28.3541 25.5063C28.3415 26.1662 28.1332 26.8076 27.7557 27.3491C27.3782 27.8906 26.8484 28.3078 26.2335 28.5478C25.6186 28.7879 24.9463 28.84 24.3018 28.6975C23.6573 28.555 23.0696 28.2244 22.6132 27.7475C22.1568 27.2706 21.8522 26.6689 21.7381 26.0188C21.6241 25.3686 21.7056 24.6992 21.9724 24.0955C22.2392 23.4917 22.6792 22.9807 23.2368 22.6273C23.7943 22.2739 24.4442 22.094 25.1041 22.1104C25.9809 22.1429 26.8107 22.5156 27.4174 23.1495C28.0241 23.7835 28.3601 24.6288 28.3541 25.5063Z" fill="#FAFAFA"/>
<path d="M31.6802 13.8188H18.7949C17.5199 13.8188 16.2971 14.3252 15.3956 15.2268C14.494 16.1283 13.9875 17.3511 13.9875 18.6261V31.8011C13.9875 32.4325 14.1119 33.0576 14.3535 33.6408C14.5951 34.2241 14.9492 34.754 15.3956 35.2004C15.842 35.6468 16.3719 36.001 16.9552 36.2425C17.5385 36.4841 18.1636 36.6085 18.7949 36.6085H31.6802C32.3115 36.6085 32.9366 36.4841 33.5199 36.2425C34.1031 36.001 34.6331 35.6468 35.0795 35.2004C35.5259 34.754 35.88 34.2241 36.1216 33.6408C36.3632 33.0576 36.4875 32.4325 36.4875 31.8011V18.6498C36.49 18.0167 36.3675 17.3893 36.1271 16.8036C35.8867 16.2179 35.5331 15.6854 35.0865 15.2366C34.6399 14.7878 34.1091 14.4315 33.5246 14.1882C32.9401 13.9449 32.3133 13.8194 31.6802 13.8188ZM25.2363 32.1622C23.9608 32.191 22.7056 31.839 21.6309 31.1513C20.5563 30.4636 19.7109 29.4713 19.2027 28.301C18.6945 27.1307 18.5465 25.8355 18.7776 24.5808C19.0087 23.326 19.6084 22.1686 20.5003 21.2561C21.3921 20.3437 22.5355 19.7177 23.7847 19.458C25.0339 19.1984 26.3321 19.3167 27.5137 19.7981C28.6953 20.2795 29.7066 21.102 30.4187 22.1607C31.1307 23.2194 31.5112 24.4662 31.5115 25.7421C31.5219 26.5759 31.3677 27.4036 31.0578 28.1777C30.7479 28.9519 30.2883 29.6573 29.7055 30.2536C29.1226 30.8499 28.4278 31.3255 27.661 31.653C26.8941 31.9804 26.0702 32.1535 25.2363 32.1622ZM32.2098 19.3244C32.0531 19.3244 31.8979 19.2932 31.7534 19.2325C31.6089 19.1718 31.478 19.0829 31.3683 18.971C31.2586 18.8591 31.1723 18.7264 31.1145 18.5807C31.0567 18.435 31.0286 18.2792 31.0317 18.1226C31.0317 17.8038 31.1584 17.4981 31.3838 17.2727C31.6091 17.0473 31.9148 16.9207 32.2336 16.9207C32.5523 16.9207 32.858 17.0473 33.0834 17.2727C33.3088 17.4981 33.4354 17.8038 33.4354 18.1226C33.4401 18.2922 33.4081 18.4609 33.3416 18.6171C33.2751 18.7732 33.1756 18.9132 33.0499 19.0273C32.9243 19.1414 32.7755 19.2271 32.6137 19.2783C32.4519 19.3296 32.2809 19.3453 32.1124 19.3244H32.2098Z" fill="#FAFAFA"/>
<path d="M25.125 0.000312931C18.4947 -0.0328387 12.1227 2.56926 7.41094 7.23416C2.69915 11.8991 0.0334646 18.2447 0.000312931 24.875C-0.0328387 31.5053 2.56926 37.8773 7.23416 42.5891C11.8991 47.3009 18.2447 49.9665 24.875 49.9997C28.158 50.0161 31.4121 49.3857 34.4515 48.1445C37.4909 46.9033 40.256 45.0757 42.5891 42.7658C44.9221 40.456 46.7773 37.7093 48.0489 34.6824C49.3204 31.6556 49.9833 28.408 49.9997 25.125C50.0161 21.842 49.3857 18.5879 48.1445 15.5485C46.9033 12.5091 45.0757 9.74398 42.7658 7.41094C40.456 5.0779 37.7093 3.22265 34.6824 1.95114C31.6556 0.679618 28.408 0.016728 25.125 0.000312931ZM40.3073 31.7549C40.3143 32.8765 40.0985 33.9883 39.6726 35.0259C39.2467 36.0634 38.6191 37.0061 37.8261 37.7993C37.0331 38.5925 36.0906 39.2204 35.0532 39.6467C34.0157 40.0729 32.904 40.2889 31.7824 40.2823H18.4726C17.351 40.2893 16.2392 40.0735 15.2016 39.6476C14.1641 39.2217 13.2214 38.5941 12.4282 37.8011C11.635 37.0081 11.007 36.0656 10.5808 35.0282C10.1546 33.9907 9.93855 32.879 9.94519 31.7574V18.4451C9.93822 17.3235 10.1539 16.2117 10.5799 15.1741C11.0058 14.1366 11.6334 13.1939 12.4264 12.4007C13.2194 11.6075 14.1619 10.9795 15.1993 10.5533C16.2368 10.1271 17.3485 9.91105 18.4701 9.91769H31.7824C32.9038 9.91105 34.0153 10.127 35.0526 10.5531C36.0899 10.9792 37.0323 11.6068 37.8252 12.3998C38.6181 13.1927 39.2458 14.1351 39.6719 15.1724C40.098 16.2097 40.3139 17.3212 40.3073 18.4426V31.7549Z" fill="#FAFAFA"/>
</g>
<defs>
<clipPath id="clip0_25_905">
<rect width="50" height="50" fill="white"/>
</clipPath>
</defs>
</svg>
