<svg width="20" height="21" viewBox="0 0 20 21" fill="none" xmlns="http://www.w3.org/2000/svg">
<g clip-path="url(#clip0_1_7229)">
<path d="M10 2.1333C12.6719 2.1333 12.9883 2.14502 14.0391 2.19189C15.0156 2.23486 15.543 2.39893 15.8945 2.53564C16.3594 2.71533 16.6953 2.93408 17.043 3.28174C17.3945 3.6333 17.6094 3.96533 17.7891 4.43018C17.9258 4.78174 18.0898 5.31299 18.1328 6.28564C18.1797 7.34033 18.1914 7.65674 18.1914 10.3247C18.1914 12.9966 18.1797 13.313 18.1328 14.3638C18.0898 15.3403 17.9258 15.8677 17.7891 16.2192C17.6094 16.6841 17.3906 17.02 17.043 17.3677C16.6914 17.7192 16.3594 17.9341 15.8945 18.1138C15.543 18.2505 15.0117 18.4146 14.0391 18.4575C12.9844 18.5044 12.668 18.5161 10 18.5161C7.32813 18.5161 7.01172 18.5044 5.96094 18.4575C4.98438 18.4146 4.45703 18.2505 4.10547 18.1138C3.64063 17.9341 3.30469 17.7153 2.95703 17.3677C2.60547 17.0161 2.39063 16.6841 2.21094 16.2192C2.07422 15.8677 1.91016 15.3364 1.86719 14.3638C1.82031 13.3091 1.80859 12.9927 1.80859 10.3247C1.80859 7.65283 1.82031 7.33643 1.86719 6.28564C1.91016 5.30908 2.07422 4.78174 2.21094 4.43018C2.39063 3.96533 2.60938 3.62939 2.95703 3.28174C3.30859 2.93018 3.64063 2.71533 4.10547 2.53564C4.45703 2.39893 4.98828 2.23486 5.96094 2.19189C7.01172 2.14502 7.32813 2.1333 10 2.1333ZM10 0.33252C7.28516 0.33252 6.94531 0.344238 5.87891 0.391113C4.81641 0.437988 4.08594 0.609863 3.45313 0.855957C2.79297 1.11377 2.23438 1.45361 1.67969 2.01221C1.12109 2.56689 0.78125 3.12549 0.523438 3.78174C0.277344 4.41846 0.105469 5.14502 0.0585938 6.20752C0.0117188 7.27783 0 7.61768 0 10.3325C0 13.0474 0.0117188 13.3872 0.0585938 14.4536C0.105469 15.5161 0.277344 16.2466 0.523438 16.8794C0.78125 17.5396 1.12109 18.0981 1.67969 18.6528C2.23438 19.2075 2.79297 19.5513 3.44922 19.8052C4.08594 20.0513 4.8125 20.2231 5.875 20.27C6.94141 20.3169 7.28125 20.3286 9.99609 20.3286C12.7109 20.3286 13.0508 20.3169 14.1172 20.27C15.1797 20.2231 15.9102 20.0513 16.543 19.8052C17.1992 19.5513 17.7578 19.2075 18.3125 18.6528C18.8672 18.0981 19.2109 17.5396 19.4648 16.8833C19.7109 16.2466 19.8828 15.52 19.9297 14.4575C19.9766 13.3911 19.9883 13.0513 19.9883 10.3364C19.9883 7.62158 19.9766 7.28174 19.9297 6.21533C19.8828 5.15283 19.7109 4.42236 19.4648 3.78955C19.2188 3.12549 18.8789 2.56689 18.3203 2.01221C17.7656 1.45752 17.207 1.11377 16.5508 0.859863C15.9141 0.61377 15.1875 0.441895 14.125 0.39502C13.0547 0.344238 12.7148 0.33252 10 0.33252Z" fill="white"/>
<path d="M10 5.1958C7.16406 5.1958 4.86328 7.49658 4.86328 10.3325C4.86328 13.1685 7.16406 15.4692 10 15.4692C12.8359 15.4692 15.1367 13.1685 15.1367 10.3325C15.1367 7.49658 12.8359 5.1958 10 5.1958ZM10 13.6645C8.16016 13.6645 6.66797 12.1724 6.66797 10.3325C6.66797 8.49268 8.16016 7.00049 10 7.00049C11.8398 7.00049 13.332 8.49268 13.332 10.3325C13.332 12.1724 11.8398 13.6645 10 13.6645Z" fill="white"/>
<path d="M16.5391 4.99268C16.5391 5.65674 16 6.1919 15.3398 6.1919C14.6758 6.1919 14.1406 5.65283 14.1406 4.99268C14.1406 4.32861 14.6797 3.79346 15.3398 3.79346C16 3.79346 16.5391 4.33252 16.5391 4.99268Z" fill="white"/>
</g>
<defs>
<clipPath id="clip0_1_7229">
<rect width="20" height="20" fill="white" transform="translate(0 0.33252)"/>
</clipPath>
</defs>
</svg>
