<svg width="64" height="65" viewBox="0 0 64 65" fill="none" xmlns="http://www.w3.org/2000/svg">
<path d="M0 32.5757C0 14.9026 14.3269 0.575684 32 0.575684C49.6731 0.575684 64 14.9026 64 32.5757C64 50.2488 49.6731 64.5757 32 64.5757C14.3269 64.5757 0 50.2488 0 32.5757Z" fill="url(#paint0_radial_1_7160)"/>
<g clip-path="url(#clip0_1_7160)">
<path d="M44 17.5757H20C18.35 17.5757 17.015 18.9257 17.015 20.5757L17 47.5757L23 41.5757H44C45.65 41.5757 47 40.2257 47 38.5757V20.5757C47 18.9257 45.65 17.5757 44 17.5757ZM24.5 28.0757H39.5C40.325 28.0757 41 28.7507 41 29.5757C41 30.4007 40.325 31.0757 39.5 31.0757H24.5C23.675 31.0757 23 30.4007 23 29.5757C23 28.7507 23.675 28.0757 24.5 28.0757ZM33.5 35.5757H24.5C23.675 35.5757 23 34.9007 23 34.0757C23 33.2507 23.675 32.5757 24.5 32.5757H33.5C34.325 32.5757 35 33.2507 35 34.0757C35 34.9007 34.325 35.5757 33.5 35.5757ZM39.5 26.5757H24.5C23.675 26.5757 23 25.9007 23 25.0757C23 24.2507 23.675 23.5757 24.5 23.5757H39.5C40.325 23.5757 41 24.2507 41 25.0757C41 25.9007 40.325 26.5757 39.5 26.5757Z" fill="white"/>
</g>
<defs>
<radialGradient id="paint0_radial_1_7160" cx="0" cy="0" r="1" gradientUnits="userSpaceOnUse" gradientTransform="translate(64 0.575679) rotate(112.23) scale(95.4583 223.205)">
<stop offset="0.0420757" stop-color="#13B4EE"/>
<stop offset="0.735" stop-color="#2DF8FA"/>
</radialGradient>
<clipPath id="clip0_1_7160">
<rect width="36" height="36" fill="white" transform="translate(14 14.5757)"/>
</clipPath>
</defs>
</svg>
