<svg width="20" height="21" viewBox="0 0 20 21" fill="none" xmlns="http://www.w3.org/2000/svg">
<g clip-path="url(#clip0_1_7232)">
<path d="M6.70265 16.3255H4.18057V8.33057H6.70265V16.3255ZM5.43986 7.22264C5.15377 7.22103 4.87457 7.13489 4.6375 6.97507C4.40043 6.81526 4.2161 6.58895 4.10779 6.32469C3.99947 6.06043 3.97203 5.77008 4.02891 5.49027C4.0858 5.21046 4.22446 4.95373 4.42741 4.7525C4.63035 4.55126 4.88848 4.41453 5.16922 4.35956C5.44996 4.30459 5.74073 4.33384 6.00482 4.44363C6.26892 4.55342 6.4945 4.73881 6.65312 4.97643C6.81173 5.21404 6.89626 5.49322 6.89603 5.77873C6.89873 5.96988 6.86284 6.15962 6.79049 6.33663C6.71815 6.51364 6.61084 6.6743 6.47495 6.80905C6.33907 6.94379 6.17739 7.04985 5.99956 7.1209C5.82173 7.19196 5.63138 7.22656 5.43986 7.22264ZM15.9988 16.3325H13.4779V11.9648C13.4779 10.6766 12.9292 10.279 12.221 10.279C11.4731 10.279 10.7392 10.8417 10.7392 11.9973V16.3325H8.21707V8.33638H10.6425V9.44431H10.6751C10.9186 8.95254 11.7713 8.112 13.0725 8.112C14.4798 8.112 16 8.94557 16 11.387L15.9988 16.3325Z" fill="white"/>
<rect x="1" y="1.33252" width="18" height="18" rx="2" stroke="white" stroke-width="2"/>
</g>
<defs>
<clipPath id="clip0_1_7232">
<rect width="20" height="20" fill="white" transform="translate(0 0.33252)"/>
</clipPath>
</defs>
</svg>
