<svg width="135" height="32" viewBox="0 0 135 32" fill="none" xmlns="http://www.w3.org/2000/svg">
<path d="M134.391 7.86568V23.6567H131.344V7.86568H134.391ZM130.734 2.0497C130.734 0.866219 131.682 0.0546875 132.867 0.0546875C134.052 0.0546875 135 0.866219 135 2.0497C135 3.23319 134.052 4.04472 132.867 4.04472C131.682 4.04472 130.734 3.23319 130.734 2.0497Z" fill="white"/>
<path d="M123.045 23.6363V21.2017C121.996 22.96 119.693 23.9744 117.493 23.9744C113.159 23.9744 109.469 20.7283 109.469 15.7238C109.469 10.6856 113.159 7.50708 117.493 7.50708C119.693 7.50708 121.962 8.42005 123.045 10.2122V7.84522H126.092V23.6363H123.045ZM123.011 15.69C123.011 12.3086 120.337 10.5165 117.764 10.5165C114.92 10.5165 112.617 12.5792 112.617 15.69C112.617 18.8009 114.92 20.965 117.764 20.965C120.574 20.965 123.011 19.0376 123.011 15.69Z" fill="white"/>
<path d="M58.6756 16.388V7.86694H61.7565V23.658H58.6756V21.291C57.6938 23.1846 55.4931 23.9961 53.7664 23.9961C49.8052 23.9961 47.6384 21.4601 47.6723 16.9967V7.86694H50.7532V16.7938C50.7532 19.4651 52.0397 20.9867 54.2065 20.9867C56.4411 20.9867 58.6756 19.7694 58.6756 16.388Z" fill="white"/>
<path d="M39.66 16.3871V7.86597H42.7409V23.657H39.66V21.2901C38.6781 23.1836 36.4775 23.9952 34.7508 23.9952C30.7896 23.9952 28.6228 21.4591 28.6566 16.9957V7.86597H31.7376V16.7928C31.7376 19.4641 33.0241 20.9857 35.1909 20.9857C37.4254 20.9857 39.66 19.7684 39.66 16.3871Z" fill="white"/>
<path d="M20.6641 0.0634766H23.7141V23.6473H20.6641V0.0634766Z" fill="white"/>
<path d="M3.08093 7.86573V10.3341C4.16434 8.542 6.365 7.52759 8.59952 7.52759C12.9331 7.52759 16.5219 10.8075 16.5219 15.812C16.5219 20.8164 12.9331 23.9949 8.59952 23.9949C6.365 23.9949 4.16434 23.0819 3.08093 21.2898V31.3325H0V7.86573H3.08093ZM3.11479 15.8458C3.11479 19.2272 5.75559 20.9855 8.29481 20.9855C11.1388 20.9855 13.4071 18.9905 13.4071 15.8458C13.4071 12.7011 11.1388 10.537 8.29481 10.537C5.51859 10.537 3.11479 12.4982 3.11479 15.8458Z" fill="white"/>
<path d="M87.3951 12.2453C87.4671 12.0573 87.7331 12.0573 87.8051 12.2453L88.1843 13.2358C88.4133 13.8339 88.892 14.3021 89.495 14.5178L90.5207 14.8847C90.7148 14.9541 90.7148 15.2286 90.5207 15.298L89.495 15.6649C88.892 15.8806 88.4133 16.3488 88.1843 16.9469L87.8051 17.9373C87.7331 18.1254 87.4671 18.1254 87.3951 17.9373L87.0158 16.9469C86.7868 16.3488 86.3081 15.8806 85.7051 15.6649L84.6794 15.298C84.4853 15.2286 84.4853 14.9541 84.6794 14.8847L85.7051 14.5178C86.3081 14.3021 86.7868 13.8339 87.0158 13.2358L87.3951 12.2453Z" fill="white"/>
<path d="M77.2388 12.2453C77.3108 12.0573 77.5768 12.0573 77.6488 12.2453L78.0281 13.2358C78.257 13.8339 78.7358 14.3021 79.3387 14.5178L80.3645 14.8847C80.5586 14.9541 80.5586 15.2286 80.3645 15.298L79.3387 15.6649C78.7358 15.8806 78.257 16.3488 78.0281 16.9469L77.6488 17.9373C77.5768 18.1254 77.3108 18.1254 77.2388 17.9373L76.8596 16.9469C76.6306 16.3488 76.1519 15.8806 75.5489 15.6649L74.5232 15.298C74.329 15.2286 74.329 14.9541 74.5232 14.8847L75.5489 14.5178C76.1519 14.3021 76.6306 13.8339 76.8596 13.2358L77.2388 12.2453Z" fill="white"/>
<path fill-rule="evenodd" clip-rule="evenodd" d="M84.8668 2.14154C84.8668 3.04668 84.3046 3.82066 83.5099 4.13413V6.9766H91.1935C93.1828 6.9766 95.0051 7.69055 96.4176 8.87588V6.95414H99.4308V20.8065C99.4308 28.1626 96.1203 31.022 90.9724 31.0849V31.0973H73.8625C70.9169 31.0973 68.2423 29.6375 66.7188 26.8197L66.7781 26.7872C67.2515 26.5281 68.904 25.6237 69.2918 25.4617C70.2398 27.2271 72.1019 28.1777 73.8625 28.1777H90.9724C94.1225 28.1156 96.1977 26.3547 96.4011 21.7726C94.9909 22.9497 93.1751 23.6581 91.1935 23.6581H74.0396C69.552 23.6581 65.9141 20.0247 65.9141 15.5428V15.0919C65.9141 10.61 69.552 6.9766 74.0396 6.9766H81.9299V4.13199C81.138 3.81716 80.5783 3.04463 80.5783 2.14154C80.5783 0.958801 81.5383 0 82.7226 0C83.9068 0 84.8668 0.958801 84.8668 2.14154ZM91.1935 10.1326H74.0396C71.2972 10.1326 69.074 12.3529 69.074 15.0919V15.5428C69.074 18.2817 71.2972 20.5021 74.0396 20.5021H91.1935C93.9359 20.5021 96.1591 18.2817 96.1591 15.5428V15.0919C96.1591 12.3529 93.9359 10.1326 91.1935 10.1326Z" fill="white"/>
<path d="M102.82 21.9208C102.82 20.7035 103.836 19.7905 105.021 19.7905C106.24 19.7905 107.255 20.7035 107.255 21.9208C107.255 23.1381 106.24 24.0173 105.021 24.0173C103.836 24.0173 102.82 23.1381 102.82 21.9208Z" fill="white"/>
</svg>
