<svg width="785" height="255" viewBox="0 0 785 255" fill="none" xmlns="http://www.w3.org/2000/svg">
<path fill-rule="evenodd" clip-rule="evenodd" d="M619.534 24.7918C619.534 35.2583 613.04 44.2099 603.855 47.8467V80.7637H692.683C715.691 80.7637 736.77 89.0116 753.116 102.708V80.5031H788.003V240.867C788.003 326.025 749.674 359.127 690.072 359.855V360H491.975C457.872 360 426.905 343.1 409.266 310.479L409.953 310.103L409.954 310.102L409.958 310.1L409.964 310.097C415.458 307.09 434.57 296.633 439.057 294.758C450.032 315.195 471.591 326.2 491.975 326.2H690.072C726.534 325.481 750.557 305.108 752.924 252.095C736.604 265.695 715.601 273.879 692.683 273.879H494.077C442.12 273.879 400 231.817 400 179.931V174.712C400 122.826 442.12 80.7637 494.077 80.7637H585.562V47.8469C576.378 44.2102 569.883 35.2584 569.883 24.7918C569.883 11.0997 580.998 0 594.709 0C608.42 0 619.534 11.0997 619.534 24.7918ZM692.683 117.299H494.077C462.325 117.299 436.585 143.003 436.585 174.712V179.931C436.585 211.639 462.325 237.343 494.077 237.343H692.683C724.435 237.343 750.175 211.639 750.175 179.931V174.712C750.175 143.003 724.435 117.299 692.683 117.299ZM650.538 137.156C650.752 136.598 651.54 136.598 651.753 137.156L661.018 161.348C661.696 163.121 663.115 164.508 664.902 165.147L689.939 174.102C690.514 174.307 690.514 175.121 689.939 175.327L664.902 184.281C663.115 184.92 661.696 186.308 661.018 188.08L651.753 212.273C651.54 212.83 650.752 212.83 650.538 212.273L641.274 188.08C640.595 186.308 639.177 184.92 637.39 184.281L612.353 175.327C611.778 175.121 611.778 174.307 612.353 174.102L637.39 165.147C639.177 164.508 640.595 163.121 641.274 161.348L650.538 137.156ZM534.16 137.156C533.946 136.598 533.158 136.598 532.945 137.156L523.68 161.348C523.002 163.121 521.583 164.508 519.796 165.147L494.76 174.102C494.184 174.307 494.184 175.121 494.76 175.327L519.796 184.281C521.583 184.92 523.002 186.308 523.68 188.08L532.945 212.273C533.158 212.83 533.946 212.83 534.16 212.273L543.424 188.08C544.103 186.308 545.521 184.92 547.308 184.281L572.345 175.327C572.92 175.121 572.92 174.307 572.345 174.102L547.308 165.147C545.521 164.508 544.103 163.121 543.424 161.348L534.16 137.156Z" fill="white"/>
<path fill-rule="evenodd" clip-rule="evenodd" d="M247.771 152.396C247.771 157.63 244.522 162.107 239.928 163.925V180.382H284.341C295.844 180.382 306.384 184.506 314.557 191.354V180.251H332V260.433C332 303.011 312.836 319.562 283.035 319.926V319.998H183.987C166.936 319.998 151.452 311.548 142.633 295.238L142.977 295.05L142.977 295.05L142.977 295.05L142.978 295.05C145.719 293.549 155.284 288.316 157.528 287.378C163.016 297.596 173.795 303.099 183.987 303.099H283.035C301.266 302.739 313.277 292.553 314.46 266.047C306.301 272.847 295.799 276.939 284.341 276.939H185.038C159.06 276.939 138 255.908 138 229.965V227.355C138 201.413 159.06 180.382 185.038 180.382H230.781V163.922C226.191 162.102 222.945 157.628 222.945 152.396C222.945 145.55 228.503 140 235.358 140C242.214 140 247.771 145.55 247.771 152.396ZM284.341 198.649H185.038C169.162 198.649 156.293 211.502 156.293 227.355V229.965C156.293 245.819 169.162 258.671 185.038 258.671H284.341C300.216 258.671 313.086 245.819 313.086 229.965V227.355C313.086 211.501 300.216 198.649 284.341 198.649ZM262.965 209.371C263.179 208.813 263.967 208.813 264.18 209.371L267.974 219.278C268.653 221.05 270.072 222.437 271.859 223.077L282.113 226.744C282.688 226.95 282.688 227.763 282.113 227.969L271.859 231.636C270.072 232.276 268.653 233.663 267.974 235.435L264.18 245.342C263.967 245.9 263.179 245.9 262.965 245.342L259.172 235.435C258.493 233.663 257.074 232.276 255.287 231.636L245.033 227.969C244.458 227.763 244.458 226.95 245.033 226.744L255.287 223.077C257.074 222.437 258.493 221.05 259.172 219.278L262.965 209.371ZM205.383 209.371C205.17 208.813 204.382 208.813 204.168 209.371L200.375 219.278C199.696 221.05 198.277 222.437 196.49 223.077L186.236 226.744C185.661 226.95 185.661 227.763 186.236 227.969L196.49 231.636C198.277 232.276 199.696 233.663 200.375 235.435L204.168 245.342C204.382 245.9 205.17 245.9 205.383 245.342L209.177 235.435C209.856 233.663 211.275 232.276 213.062 231.636L223.316 227.969C223.891 227.763 223.891 226.95 223.316 226.744L213.062 223.077C211.275 222.437 209.856 221.05 209.177 219.278L205.383 209.371Z" fill="white"/>
<path fill-rule="evenodd" clip-rule="evenodd" d="M54.8894 202.198C54.8894 204.817 53.2629 207.056 50.9638 207.964V216.191H73.1703C78.9203 216.191 84.1884 218.252 88.2745 221.674V216.126H96.9961V256.217C96.9961 277.506 87.414 285.781 72.5136 285.964V286H22.9896C14.464 286 6.72232 281.775 2.3125 273.619L2.48436 273.525L2.48457 273.525L2.48545 273.525C3.85712 272.774 8.63801 270.158 9.76019 269.689C12.5041 274.799 17.8938 277.55 22.9896 277.55H72.5136C81.6282 277.37 87.6336 272.278 88.2262 259.027C84.147 262.425 78.8977 264.47 73.1703 264.47H23.519C10.5298 264.47 0 253.954 0 240.983V239.678C0 226.707 10.5298 216.191 23.519 216.191H46.3906V207.959C44.0976 207.049 42.4766 204.812 42.4766 202.198C42.4766 198.775 45.2553 196 48.683 196C52.1107 196 54.8894 198.775 54.8894 202.198ZM73.1703 225.325H23.519C15.5812 225.325 9.14629 231.751 9.14629 239.678V240.983C9.14629 248.91 15.5812 255.336 23.519 255.336H73.1703C81.1081 255.336 87.543 248.91 87.543 240.983V239.678C87.543 231.751 81.1081 225.325 73.1703 225.325ZM62.175 231.479C62.3884 230.922 63.1766 230.922 63.39 231.479L64.4485 234.243C65.1272 236.016 66.546 237.403 68.333 238.042L71.1961 239.066C71.7713 239.272 71.7713 240.086 71.1961 240.291L68.333 241.315C66.546 241.954 65.1272 243.342 64.4485 245.114L63.39 247.878C63.1766 248.436 62.3883 248.436 62.175 247.878L61.1165 245.114C60.4378 243.342 59.019 241.954 57.232 241.315L54.3689 240.291C53.7936 240.086 53.7936 239.272 54.3689 239.066L57.232 238.042C59.019 237.403 60.4378 236.016 61.1165 234.243L62.175 231.479ZM33.9994 231.479C33.786 230.922 32.9977 230.922 32.7844 231.479L31.7258 234.243C31.0471 236.016 29.6284 237.403 27.8414 238.042L24.9783 239.066C24.403 239.272 24.403 240.086 24.9783 240.291L27.8414 241.315C29.6284 241.954 31.0471 243.342 31.7258 245.114L32.7844 247.878C32.9977 248.436 33.786 248.436 33.9994 247.878L35.0579 245.114C35.7366 243.342 37.1554 241.954 38.9423 241.315L41.8054 240.291C42.3807 240.086 42.3807 239.272 41.8054 239.066L38.9423 238.042C37.1554 237.403 35.7366 236.016 35.0579 234.243L33.9994 231.479Z" fill="white"/>
</svg>
