<svg width="465" height="271" viewBox="0 0 465 271" fill="none" xmlns="http://www.w3.org/2000/svg">
<g clip-path="url(#clip0_148_2)">
<path d="M458.729 270.976H6.27115C4.6085 270.974 3.01449 270.312 1.83882 269.135C0.66315 267.959 0.00184841 266.363 0 264.699L0 6.27673C0.00169439 4.61266 0.662928 3.01722 1.83861 1.84049C3.0143 0.663759 4.6084 0.00185016 6.27115 0H458.729C460.391 0.00200371 461.985 0.663882 463.161 1.84045C464.337 3.01702 464.998 4.61222 465 6.27614V264.699C464.998 266.363 464.337 267.959 463.161 269.135C461.985 270.312 460.391 270.974 458.729 270.976Z" fill="#4A38A0"/>
<path d="M453.3 9.93384H10.5358V259.964H453.3V9.93384Z" fill="#6751D1"/>
<path d="M245.904 146.473C244.029 146.473 242.173 146.104 240.442 145.386C238.71 144.668 237.137 143.615 235.811 142.289C234.486 140.962 233.435 139.387 232.718 137.654C232.001 135.921 231.632 134.063 231.632 132.187V128.358C231.632 124.569 233.136 120.936 235.812 118.258C238.489 115.579 242.119 114.074 245.904 114.074C246.02 114.071 246.135 114.092 246.243 114.134C246.351 114.176 246.449 114.24 246.532 114.321C246.615 114.402 246.681 114.498 246.726 114.605C246.771 114.712 246.795 114.827 246.795 114.943C246.795 115.059 246.771 115.174 246.726 115.281C246.681 115.388 246.615 115.484 246.532 115.565C246.449 115.646 246.351 115.71 246.243 115.752C246.135 115.794 246.02 115.815 245.904 115.812C242.579 115.812 239.391 117.133 237.04 119.486C234.689 121.839 233.369 125.03 233.369 128.357V132.187C233.369 135.515 234.689 138.706 237.04 141.059C239.391 143.411 242.579 144.733 245.904 144.733C249.229 144.733 252.417 143.411 254.768 141.059C257.119 138.706 258.44 135.515 258.44 132.187V125.291C258.437 125.175 258.457 125.06 258.499 124.952C258.541 124.844 258.605 124.745 258.686 124.662C258.767 124.579 258.863 124.513 258.97 124.468C259.077 124.423 259.192 124.4 259.308 124.4C259.424 124.4 259.538 124.423 259.645 124.468C259.752 124.513 259.849 124.579 259.93 124.662C260.01 124.745 260.074 124.844 260.116 124.952C260.158 125.06 260.179 125.175 260.176 125.291V132.187C260.176 134.063 259.807 135.921 259.09 137.654C258.373 139.387 257.322 140.962 255.996 142.289C254.671 143.615 253.098 144.668 251.366 145.386C249.634 146.104 247.778 146.473 245.904 146.473Z" fill="white"/>
<path d="M219.097 146.473C217.223 146.473 215.367 146.103 213.635 145.385C211.904 144.667 210.33 143.615 209.005 142.289C207.679 140.962 206.628 139.387 205.911 137.654C205.194 135.921 204.825 134.063 204.825 132.187V125.291C204.822 125.175 204.843 125.06 204.885 124.952C204.927 124.844 204.991 124.745 205.072 124.662C205.153 124.579 205.249 124.513 205.356 124.468C205.463 124.423 205.578 124.399 205.693 124.399C205.809 124.399 205.924 124.423 206.031 124.468C206.138 124.513 206.234 124.579 206.315 124.662C206.396 124.745 206.46 124.844 206.502 124.952C206.544 125.06 206.564 125.175 206.561 125.291V132.187C206.561 135.515 207.882 138.706 210.233 141.058C212.584 143.411 215.772 144.733 219.097 144.733C222.422 144.733 225.61 143.411 227.961 141.058C230.312 138.706 231.633 135.515 231.633 132.187V128.357C231.633 126.71 231.308 125.079 230.678 123.556C230.049 122.034 229.125 120.651 227.961 119.486C226.797 118.322 225.415 117.397 223.894 116.767C222.374 116.137 220.744 115.812 219.097 115.812C218.871 115.806 218.656 115.712 218.498 115.55C218.34 115.388 218.252 115.17 218.252 114.943C218.252 114.717 218.34 114.499 218.498 114.337C218.656 114.175 218.871 114.081 219.097 114.075C222.882 114.075 226.512 115.58 229.188 118.258C231.865 120.937 233.368 124.569 233.369 128.357V132.187C233.369 134.063 233 135.921 232.283 137.654C231.566 139.387 230.515 140.962 229.19 142.288C227.864 143.615 226.291 144.667 224.559 145.385C222.828 146.103 220.972 146.473 219.097 146.473Z" fill="white"/>
<path d="M259.307 101.63C259.077 101.63 258.856 101.539 258.693 101.376C258.531 101.213 258.439 100.992 258.439 100.761V90.0302C258.439 86.7029 257.118 83.5119 254.768 81.1591C252.417 78.8064 249.228 77.4846 245.904 77.4846C242.579 77.4846 239.39 78.8064 237.04 81.1591C234.689 83.5119 233.368 86.7029 233.368 90.0302C233.371 90.1462 233.351 90.2616 233.308 90.3696C233.266 90.4776 233.203 90.5761 233.122 90.6591C233.041 90.7422 232.944 90.8083 232.837 90.8534C232.731 90.8984 232.616 90.9217 232.5 90.9217C232.384 90.9217 232.269 90.8984 232.163 90.8534C232.056 90.8083 231.959 90.7422 231.878 90.6591C231.797 90.5761 231.734 90.4776 231.692 90.3696C231.649 90.2616 231.629 90.1462 231.632 90.0302C231.62 88.1469 231.98 86.2797 232.692 84.5363C233.404 82.7929 234.453 81.2075 235.78 79.8715C237.106 78.5355 238.683 77.4753 240.421 76.7518C242.158 76.0282 244.022 75.6558 245.904 75.6558C247.785 75.6558 249.649 76.0282 251.386 76.7518C253.124 77.4753 254.701 78.5355 256.027 79.8715C257.354 81.2075 258.403 82.7929 259.115 84.5363C259.827 86.2797 260.187 88.1469 260.175 90.0302V100.761C260.175 100.992 260.084 101.213 259.921 101.376C259.758 101.538 259.538 101.63 259.307 101.63Z" fill="white"/>
<path d="M232.501 129.225C232.271 129.225 232.05 129.134 231.887 128.971C231.724 128.808 231.633 128.587 231.633 128.356V90.0301C231.633 86.7028 230.312 83.5118 227.961 81.159C225.61 78.8063 222.422 77.4845 219.097 77.4845C215.772 77.4845 212.584 78.8063 210.233 81.159C207.882 83.5118 206.561 86.7028 206.561 90.0301V100.761C206.556 100.988 206.462 101.203 206.299 101.361C206.137 101.519 205.92 101.608 205.693 101.608C205.467 101.608 205.25 101.519 205.087 101.361C204.925 101.203 204.831 100.988 204.825 100.761V90.0301C204.826 87.2053 205.663 84.4439 207.231 82.0952C208.799 79.7465 211.028 77.9159 213.636 76.8349C216.243 75.7538 219.113 75.4709 221.881 76.0219C224.649 76.5729 227.192 77.9331 229.188 79.9304C230.518 81.2536 231.572 82.8276 232.289 84.5612C233.007 86.2948 233.374 88.1537 233.369 90.0301V128.356C233.369 128.587 233.277 128.807 233.114 128.97C232.952 129.133 232.731 129.225 232.501 129.225Z" fill="white"/>
<path d="M250.96 127.309C250.844 127.312 250.729 127.292 250.621 127.25C250.513 127.207 250.414 127.144 250.331 127.063C250.248 126.982 250.182 126.885 250.137 126.778C250.092 126.671 250.069 126.556 250.069 126.44C250.069 126.324 250.092 126.21 250.137 126.103C250.182 125.996 250.248 125.899 250.331 125.818C250.414 125.737 250.513 125.674 250.621 125.631C250.729 125.589 250.844 125.569 250.96 125.572C254.285 125.572 257.473 124.25 259.824 121.897C262.175 119.544 263.495 116.353 263.495 113.026C263.495 109.699 262.175 106.508 259.824 104.155C257.473 101.802 254.285 100.481 250.96 100.481H249.045C248.819 100.475 248.604 100.381 248.446 100.218C248.288 100.056 248.199 99.8385 248.199 99.6119C248.199 99.3853 248.288 99.1677 248.446 99.0054C248.604 98.8432 248.819 98.7491 249.045 98.7432H250.96C252.842 98.7312 254.707 99.0917 256.449 99.8041C258.191 100.517 259.776 101.567 261.11 102.894C262.445 104.222 263.505 105.8 264.228 107.539C264.951 109.278 265.323 111.143 265.323 113.026C265.323 114.91 264.951 116.774 264.228 118.513C263.505 120.252 262.445 121.831 261.11 123.158C259.776 124.486 258.191 125.536 256.449 126.248C254.707 126.961 252.842 127.321 250.96 127.309Z" fill="white"/>
<path d="M246.998 100.481C246.882 100.484 246.767 100.463 246.659 100.421C246.551 100.379 246.452 100.315 246.369 100.234C246.286 100.153 246.22 100.057 246.175 99.9497C246.13 99.8428 246.107 99.728 246.107 99.612C246.107 99.496 246.13 99.3812 246.175 99.2743C246.22 99.1674 246.286 99.0706 246.369 98.9896C246.452 98.9087 246.551 98.8452 246.659 98.8029C246.767 98.7606 246.882 98.7403 246.998 98.7433C247.895 98.7516 248.785 98.582 249.616 98.2441C250.447 97.9063 251.203 97.407 251.841 96.7751C252.478 96.1431 252.984 95.3911 253.329 94.5623C253.674 93.7336 253.852 92.8446 253.852 91.9468C253.852 91.0489 253.674 90.1599 253.329 89.3312C252.984 88.5025 252.478 87.7504 251.841 87.1185C251.203 86.4866 250.447 85.9873 249.616 85.6494C248.785 85.3116 247.895 85.1419 246.998 85.1502H245.904C245.677 85.1444 245.462 85.0503 245.304 84.888C245.146 84.7257 245.058 84.5081 245.058 84.2816C245.058 84.055 245.146 83.8374 245.304 83.6751C245.462 83.5128 245.677 83.4188 245.904 83.4129H246.998C248.124 83.4036 249.24 83.6174 250.283 84.0421C251.325 84.4668 252.274 85.094 253.073 85.8873C253.872 86.6807 254.507 87.6246 254.94 88.6646C255.373 89.7046 255.596 90.8201 255.596 91.9468C255.596 93.0734 255.373 94.1889 254.94 95.2289C254.507 96.2689 253.872 97.2129 253.073 98.0062C252.274 98.7996 251.325 99.4267 250.283 99.8514C249.24 100.276 248.124 100.49 246.998 100.481Z" fill="white"/>
<path d="M246.998 141.771H245.904C245.788 141.774 245.673 141.753 245.565 141.711C245.457 141.669 245.358 141.605 245.275 141.524C245.192 141.443 245.126 141.347 245.081 141.24C245.036 141.133 245.013 141.018 245.013 140.902C245.013 140.786 245.036 140.671 245.081 140.564C245.126 140.457 245.192 140.361 245.275 140.28C245.358 140.199 245.457 140.135 245.565 140.093C245.673 140.051 245.788 140.03 245.904 140.033H246.998C248.788 140.017 250.499 139.293 251.759 138.021C253.02 136.748 253.726 135.029 253.726 133.237C253.726 131.445 253.02 129.726 251.759 128.453C250.499 127.18 248.788 126.457 246.998 126.44C246.772 126.434 246.557 126.34 246.399 126.178C246.241 126.016 246.152 125.798 246.152 125.572C246.152 125.345 246.241 125.127 246.399 124.965C246.557 124.803 246.772 124.709 246.998 124.703C249.247 124.721 251.398 125.629 252.982 127.227C254.566 128.826 255.455 130.986 255.455 133.237C255.455 135.488 254.566 137.648 252.982 139.246C251.398 140.845 249.247 141.752 246.998 141.771Z" fill="white"/>
<path d="M214.041 127.309C210.271 127.285 206.665 125.77 204.008 123.094C201.351 120.418 199.86 116.799 199.86 113.026C199.86 109.254 201.351 105.635 204.008 102.959C206.665 100.283 210.271 98.7673 214.041 98.7432H215.955C216.071 98.7402 216.187 98.7605 216.294 98.8028C216.402 98.8451 216.501 98.9086 216.584 98.9895C216.667 99.0705 216.733 99.1673 216.778 99.2742C216.823 99.381 216.846 99.4959 216.846 99.6119C216.846 99.7279 216.823 99.8427 216.778 99.9496C216.733 100.057 216.667 100.153 216.584 100.234C216.501 100.315 216.402 100.379 216.294 100.421C216.187 100.463 216.071 100.484 215.955 100.481H214.041C210.716 100.481 207.528 101.802 205.177 104.155C202.826 106.508 201.505 109.699 201.505 113.026C201.505 116.353 202.826 119.544 205.177 121.897C207.528 124.25 210.716 125.572 214.041 125.572C214.267 125.578 214.482 125.672 214.64 125.834C214.798 125.996 214.887 126.214 214.887 126.44C214.887 126.667 214.798 126.885 214.64 127.047C214.482 127.209 214.267 127.303 214.041 127.309Z" fill="white"/>
<path d="M218.002 100.481C215.753 100.462 213.602 99.5548 212.018 97.9564C210.434 96.358 209.545 94.198 209.545 91.9468C209.545 89.6956 210.434 87.5356 212.018 85.9372C213.602 84.3388 215.753 83.4315 218.002 83.4129H219.096C219.212 83.4099 219.327 83.4301 219.435 83.4724C219.543 83.5147 219.642 83.5782 219.725 83.6592C219.808 83.7402 219.874 83.8369 219.919 83.9438C219.964 84.0507 219.987 84.1656 219.987 84.2816C219.987 84.3976 219.964 84.5124 219.919 84.6193C219.874 84.7262 219.808 84.823 219.725 84.9039C219.642 84.9849 219.543 85.0484 219.435 85.0907C219.327 85.133 219.212 85.1532 219.096 85.1502H218.002C216.212 85.1668 214.501 85.8902 213.241 87.163C211.98 88.4358 211.274 90.155 211.274 91.9468C211.274 93.7385 211.98 95.4578 213.241 96.7306C214.501 98.0034 216.212 98.7267 218.002 98.7433C218.228 98.7492 218.443 98.8433 218.601 99.0055C218.759 99.1678 218.848 99.3854 218.848 99.612C218.848 99.8386 218.759 100.056 218.601 100.218C218.443 100.381 218.228 100.475 218.002 100.481Z" fill="white"/>
<path d="M219.097 141.771H218.003C215.753 141.752 213.603 140.845 212.019 139.246C210.435 137.648 209.546 135.488 209.546 133.237C209.546 130.986 210.435 128.826 212.019 127.227C213.603 125.629 215.753 124.721 218.003 124.703C218.229 124.709 218.444 124.803 218.602 124.965C218.76 125.127 218.849 125.345 218.849 125.572C218.849 125.798 218.76 126.016 218.602 126.178C218.444 126.34 218.229 126.434 218.003 126.44C216.212 126.457 214.501 127.18 213.241 128.453C211.981 129.726 211.274 131.445 211.274 133.237C211.274 135.029 211.981 136.748 213.241 138.021C214.501 139.293 216.212 140.017 218.003 140.033H219.097C219.213 140.03 219.328 140.051 219.436 140.093C219.544 140.135 219.642 140.199 219.725 140.28C219.808 140.361 219.874 140.457 219.919 140.564C219.964 140.671 219.988 140.786 219.988 140.902C219.988 141.018 219.964 141.133 219.919 141.24C219.874 141.347 219.808 141.443 219.725 141.524C219.642 141.605 219.544 141.669 219.436 141.711C219.328 141.753 219.213 141.774 219.097 141.771Z" fill="white"/>
<path d="M213.508 163.425H200.42C199.274 163.425 198.345 164.354 198.345 165.501C198.345 166.648 199.274 167.577 200.42 167.577H213.508C214.654 167.577 215.582 166.648 215.582 165.501C215.582 164.354 214.654 163.425 213.508 163.425Z" fill="#13B4EE"/>
<path d="M273.198 163.425H271.282C270.137 163.425 269.208 164.354 269.208 165.501C269.208 166.648 270.137 167.577 271.282 167.577H273.198C274.343 167.577 275.272 166.648 275.272 165.501C275.272 164.354 274.343 163.425 273.198 163.425Z" fill="#13B4EE"/>
<path d="M285.328 163.425H283.413C282.267 163.425 281.338 164.354 281.338 165.501C281.338 166.648 282.267 167.577 283.413 167.577H285.328C286.474 167.577 287.403 166.648 287.403 165.501C287.403 164.354 286.474 163.425 285.328 163.425Z" fill="#13B4EE"/>
<path d="M260.749 163.425H223.722C222.576 163.425 221.647 164.354 221.647 165.501C221.647 166.648 222.576 167.577 223.722 167.577H260.749C261.895 167.577 262.824 166.648 262.824 165.501C262.824 164.354 261.895 163.425 260.749 163.425Z" fill="#13B4EE"/>
<path d="M191.803 190.259H178.715C177.569 190.259 176.64 191.189 176.64 192.336C176.64 193.482 177.569 194.412 178.715 194.412H191.803C192.948 194.412 193.877 193.482 193.877 192.336C193.877 191.189 192.948 190.259 191.803 190.259Z" fill="#13B4EE"/>
<path d="M251.492 190.259H249.577C248.431 190.259 247.503 191.189 247.503 192.336C247.503 193.482 248.431 194.412 249.577 194.412H251.492C252.638 194.412 253.567 193.482 253.567 192.336C253.567 191.189 252.638 190.259 251.492 190.259Z" fill="#13B4EE"/>
<path d="M263.622 190.259H261.707C260.561 190.259 259.632 191.189 259.632 192.336C259.632 193.482 260.561 194.412 261.707 194.412H263.622C264.768 194.412 265.697 193.482 265.697 192.336C265.697 191.189 264.768 190.259 263.622 190.259Z" fill="#13B4EE"/>
<path d="M239.044 190.259H202.016C200.871 190.259 199.942 191.189 199.942 192.336C199.942 193.482 200.871 194.412 202.016 194.412H239.044C240.19 194.412 241.118 193.482 241.118 192.336C241.118 191.189 240.19 190.259 239.044 190.259Z" fill="#13B4EE"/>
<path d="M262.984 172.689H249.897C248.751 172.689 247.822 173.618 247.822 174.765C247.822 175.912 248.751 176.841 249.897 176.841H262.984C264.13 176.841 265.059 175.912 265.059 174.765C265.059 173.618 264.13 172.689 262.984 172.689Z" fill="#13B4EE"/>
<path d="M191.803 172.689H178.715C177.569 172.689 176.64 173.618 176.64 174.765C176.64 175.912 177.569 176.841 178.715 176.841H191.803C192.948 176.841 193.877 175.912 193.877 174.765C193.877 173.618 192.948 172.689 191.803 172.689Z" fill="#13B4EE"/>
<path d="M180.63 163.425H178.715C177.569 163.425 176.64 164.354 176.64 165.501C176.64 166.648 177.569 167.577 178.715 167.577H180.63C181.776 167.577 182.705 166.648 182.705 165.501C182.705 164.354 181.776 163.425 180.63 163.425Z" fill="#13B4EE"/>
<path d="M180.63 181.634H178.714C177.569 181.634 176.64 182.563 176.64 183.71C176.64 184.857 177.569 185.786 178.714 185.786H180.63C181.775 185.786 182.704 184.857 182.704 183.71C182.704 182.563 181.775 181.634 180.63 181.634Z" fill="#13B4EE"/>
<path d="M240.001 172.689H202.974C201.828 172.689 200.899 173.618 200.899 174.765C200.899 175.912 201.828 176.841 202.974 176.841H240.001C241.147 176.841 242.076 175.912 242.076 174.765C242.076 173.618 241.147 172.689 240.001 172.689Z" fill="#13B4EE"/>
<path d="M227.234 181.634H214.146C213 181.634 212.071 182.563 212.071 183.71C212.071 184.857 213 185.786 214.146 185.786H227.234C228.379 185.786 229.308 184.857 229.308 183.71C229.308 182.563 228.379 181.634 227.234 181.634Z" fill="#13B4EE"/>
<path d="M203.932 181.634H190.844C189.698 181.634 188.769 182.563 188.769 183.71C188.769 184.857 189.698 185.786 190.844 185.786H203.932C205.077 185.786 206.006 184.857 206.006 183.71C206.006 182.563 205.077 181.634 203.932 181.634Z" fill="#13B4EE"/>
<path d="M191.498 163.425H189.582C188.437 163.425 187.508 164.354 187.508 165.501C187.508 166.648 188.437 167.577 189.582 167.577H191.498C192.643 167.577 193.572 166.648 193.572 165.501C193.572 164.354 192.643 163.425 191.498 163.425Z" fill="#13B4EE"/>
<path d="M286.285 181.634H284.37C283.224 181.634 282.295 182.563 282.295 183.71C282.295 184.857 283.224 185.786 284.37 185.786H286.285C287.431 185.786 288.36 184.857 288.36 183.71C288.36 182.563 287.431 181.634 286.285 181.634Z" fill="#13B4EE"/>
<path d="M274.155 181.634H237.128C235.982 181.634 235.053 182.563 235.053 183.71C235.053 184.857 235.982 185.786 237.128 185.786H274.155C275.301 185.786 276.23 184.857 276.23 183.71C276.23 182.563 275.301 181.634 274.155 181.634Z" fill="#13B4EE"/>
<path d="M130.803 238.514H85.8855C85.6473 238.514 85.4189 238.419 85.2505 238.25C85.082 238.082 84.9872 237.853 84.9869 237.615V229.144H85.3466V237.617C85.3467 237.76 85.4036 237.897 85.5047 237.998C85.6059 238.1 85.743 238.157 85.886 238.157H130.804C130.947 238.157 131.084 238.1 131.185 237.998C131.286 237.897 131.343 237.76 131.343 237.617V229.084H131.703V237.617C131.702 237.855 131.607 238.083 131.438 238.251C131.269 238.419 131.041 238.514 130.803 238.514Z" fill="#3F3D56"/>
<path d="M147.086 228.964H41.5347V229.324H147.086V228.964Z" fill="#3F3D56"/>
<path d="M41.5429 232.21C43.2505 232.21 44.6348 230.825 44.6348 229.116C44.6348 227.407 43.2505 226.021 41.5429 226.021C39.8352 226.021 38.4509 227.407 38.4509 229.116C38.4509 230.825 39.8352 232.21 41.5429 232.21Z" fill="#13B4EE"/>
<path d="M72.9627 232.21C74.6703 232.21 76.0546 230.825 76.0546 229.116C76.0546 227.407 74.6703 226.021 72.9627 226.021C71.255 226.021 69.8707 227.407 69.8707 229.116C69.8707 230.825 71.255 232.21 72.9627 232.21Z" fill="#13B4EE"/>
<path d="M94.2871 241.305C95.9947 241.305 97.379 239.92 97.379 238.211C97.379 236.502 95.9947 235.116 94.2871 235.116C92.5795 235.116 91.1952 236.502 91.1952 238.211C91.1952 239.92 92.5795 241.305 94.2871 241.305Z" fill="#3F3D56"/>
<path d="M110.498 241.305C112.205 241.305 113.589 239.92 113.589 238.211C113.589 236.502 112.205 235.116 110.498 235.116C108.79 235.116 107.406 236.502 107.406 238.211C107.406 239.92 108.79 241.305 110.498 241.305Z" fill="#CCCCCC"/>
<path d="M102.642 232.21C104.35 232.21 105.734 230.825 105.734 229.116C105.734 227.407 104.35 226.021 102.642 226.021C100.935 226.021 99.5504 227.407 99.5504 229.116C99.5504 230.825 100.935 232.21 102.642 232.21Z" fill="#13B4EE"/>
<path d="M146.662 232.21C148.37 232.21 149.754 230.825 149.754 229.116C149.754 227.407 148.37 226.021 146.662 226.021C144.954 226.021 143.57 227.407 143.57 229.116C143.57 230.825 144.954 232.21 146.662 232.21Z" fill="#13B4EE"/>
<path d="M131.522 232.21C133.229 232.21 134.614 230.825 134.614 229.116C134.614 227.407 133.229 226.021 131.522 226.021C129.814 226.021 128.43 227.407 128.43 229.116C128.43 230.825 129.814 232.21 131.522 232.21Z" fill="#13B4EE"/>
<path d="M51.1306 229.324C51.0829 229.324 51.0372 229.305 51.0034 229.271C50.9697 229.237 50.9508 229.192 50.9508 229.144V220.264C50.9511 220.026 51.0458 219.797 51.2143 219.629C51.3827 219.46 51.6111 219.365 51.8493 219.365H60.599C60.6467 219.365 60.6925 219.384 60.7262 219.418C60.7599 219.451 60.7789 219.497 60.7789 219.545C60.7789 219.593 60.7599 219.638 60.7262 219.672C60.6925 219.706 60.6467 219.725 60.599 219.725H51.8522C51.7092 219.725 51.5721 219.782 51.471 219.883C51.3698 219.984 51.3129 220.122 51.3128 220.265V229.144C51.3128 229.192 51.2938 229.238 51.2601 229.272C51.2264 229.305 51.1806 229.324 51.133 229.324L51.1306 229.324Z" fill="#3F3D56"/>
<path d="M61.0098 222.572C62.7174 222.572 64.1017 221.186 64.1017 219.477C64.1017 217.768 62.7174 216.383 61.0098 216.383C59.3021 216.383 57.9178 217.768 57.9178 219.477C57.9178 221.186 59.3021 222.572 61.0098 222.572Z" fill="#E6E6E6"/>
<path d="M120.333 229.144H119.973V220.264C119.973 220.026 120.068 219.797 120.236 219.629C120.405 219.46 120.633 219.365 120.871 219.365H129.621V219.725H120.874C120.731 219.725 120.594 219.782 120.493 219.883C120.392 219.984 120.335 220.122 120.335 220.265L120.333 229.144Z" fill="#3F3D56"/>
<path d="M130.033 222.572C131.741 222.572 133.125 221.186 133.125 219.477C133.125 217.768 131.741 216.383 130.033 216.383C128.326 216.383 126.941 217.768 126.941 219.477C126.941 221.186 128.326 222.572 130.033 222.572Z" fill="#E6E6E6"/>
<path d="M332.604 196.778C331.311 196.778 330.26 197.239 330.26 197.805V198.627C330.26 199.194 331.311 199.654 332.604 199.654H386.978C388.27 199.654 389.321 199.193 389.321 198.627V197.805C389.321 197.239 388.27 196.778 386.978 196.778H332.604Z" fill="#F2F2F2"/>
<path d="M434.79 218.898C437.118 218.898 439.009 219.917 439.009 221.169V238.846C439.009 240.1 437.116 241.118 434.79 241.118H334.479C332.151 241.118 330.26 240.099 330.26 238.846V221.171C330.26 219.917 332.153 218.899 334.479 218.899" fill="#F2F2F2"/>
<path d="M332.604 202.37C331.311 202.37 330.26 202.937 330.26 203.633C330.26 204.329 331.311 204.895 332.604 204.895H416.04C417.333 204.895 418.384 204.329 418.384 203.633C418.384 202.937 417.333 202.37 416.04 202.37H332.604Z" fill="#F2F2F2"/>
<path d="M332.604 207.612C331.311 207.612 330.26 208.179 330.26 208.874C330.26 209.57 331.311 210.137 332.604 210.137H416.04C417.333 210.137 418.384 209.57 418.384 208.874C418.384 208.179 417.333 207.612 416.04 207.612H332.604Z" fill="#F2F2F2"/>
<path d="M69.4517 31.5699H39.4292C39.1693 31.5699 38.9202 31.4666 38.7364 31.2827C38.5527 31.0988 38.4495 30.8494 38.4495 30.5894C38.4495 30.3293 38.5527 30.08 38.7364 29.8961C38.9202 29.7122 39.1693 29.6089 39.4292 29.6089H69.4517C69.7115 29.6089 69.9607 29.7122 70.1444 29.8961C70.3281 30.08 70.4314 30.3293 70.4314 30.5894C70.4314 30.8494 70.3281 31.0988 70.1444 31.2827C69.9607 31.4666 69.7115 31.5699 69.4517 31.5699Z" fill="#13B4EE"/>
<path d="M52.4423 35.4407H39.4292C39.1693 35.4407 38.9202 35.3374 38.7364 35.1536C38.5527 34.9697 38.4495 34.7203 38.4495 34.4602C38.4495 34.2002 38.5527 33.9508 38.7364 33.7669C38.9202 33.583 39.1693 33.4797 39.4292 33.4797H52.4423C52.7021 33.4797 52.9513 33.583 53.135 33.7669C53.3188 33.9508 53.422 34.2002 53.422 34.4602C53.422 34.7203 53.3188 34.9697 53.135 35.1536C52.9513 35.3374 52.7021 35.4407 52.4423 35.4407Z" fill="#13B4EE"/>
<path d="M79.4234 36.4192C81.5723 36.4192 83.3144 34.6758 83.3144 32.5252C83.3144 30.3745 81.5723 28.6311 79.4234 28.6311C77.2745 28.6311 75.5325 30.3745 75.5325 32.5252C75.5325 34.6758 77.2745 36.4192 79.4234 36.4192Z" fill="#13B4EE"/>
<path d="M78.7774 33.9247H78.7524C78.6794 33.9211 78.608 33.9017 78.5431 33.8679C78.4782 33.8342 78.4214 33.7868 78.3765 33.729L77.7258 32.8938C77.6848 32.841 77.6546 32.7806 77.6368 32.716C77.6191 32.6515 77.6143 32.5841 77.6226 32.5177C77.6309 32.4513 77.6522 32.3871 77.6853 32.329C77.7184 32.2708 77.7627 32.2197 77.8155 32.1787L77.8387 32.16C77.8915 32.1189 77.9519 32.0885 78.0164 32.0708C78.0809 32.053 78.1483 32.0481 78.2146 32.0565C78.281 32.0648 78.3451 32.0862 78.4033 32.1193C78.4614 32.1525 78.5124 32.1968 78.5534 32.2497C78.5862 32.2919 78.6278 32.3265 78.6752 32.3511C78.7226 32.3757 78.7748 32.3898 78.8282 32.3924C78.8816 32.395 78.9349 32.3861 78.9845 32.3662C79.0341 32.3463 79.0788 32.3159 79.1155 32.2771L80.4348 30.8793C80.5278 30.7812 80.6557 30.7241 80.7907 30.7204C80.9256 30.7167 81.0566 30.7667 81.1547 30.8595L81.1762 30.8799C81.2249 30.9258 81.264 30.9809 81.2913 31.042C81.3186 31.1032 81.3336 31.169 81.3355 31.236C81.3373 31.3029 81.3259 31.3695 81.302 31.432C81.2781 31.4946 81.2421 31.5518 81.196 31.6003L79.147 33.7646C79.0994 33.8149 79.0421 33.8549 78.9786 33.8822C78.915 33.9095 78.8466 33.9236 78.7774 33.9236V33.9247Z" fill="white"/>
<path d="M69.4517 52.2925H39.4292C39.1693 52.2925 38.9202 52.1892 38.7364 52.0054C38.5527 51.8215 38.4495 51.5721 38.4495 51.312C38.4495 51.052 38.5527 50.8026 38.7364 50.6187C38.9202 50.4348 39.1693 50.3315 39.4292 50.3315H69.4517C69.7115 50.3315 69.9607 50.4348 70.1444 50.6187C70.3281 50.8026 70.4314 51.052 70.4314 51.312C70.4314 51.5721 70.3281 51.8215 70.1444 52.0054C69.9607 52.1892 69.7115 52.2925 69.4517 52.2925Z" fill="#13B4EE"/>
<path d="M52.4423 56.1639H39.4292C39.1693 56.1639 38.9202 56.0606 38.7364 55.8767C38.5527 55.6928 38.4495 55.4434 38.4495 55.1834C38.4495 54.9233 38.5527 54.6739 38.7364 54.4901C38.9202 54.3062 39.1693 54.2029 39.4292 54.2029H52.4423C52.7021 54.2029 52.9513 54.3062 53.135 54.4901C53.3188 54.6739 53.422 54.9233 53.422 55.1834C53.422 55.4434 53.3188 55.6928 53.135 55.8767C52.9513 56.0606 52.7021 56.1639 52.4423 56.1639Z" fill="#13B4EE"/>
<path d="M79.4234 57.1416C81.5723 57.1416 83.3144 55.3982 83.3144 53.2476C83.3144 51.0969 81.5723 49.3535 79.4234 49.3535C77.2745 49.3535 75.5325 51.0969 75.5325 53.2476C75.5325 55.3982 77.2745 57.1416 79.4234 57.1416Z" fill="#E6E6E6"/>
<path d="M78.7774 54.6472H78.7524C78.6794 54.6435 78.608 54.6241 78.5431 54.5903C78.4782 54.5566 78.4214 54.5092 78.3765 54.4515L77.7258 53.6163C77.6848 53.5634 77.6546 53.503 77.6368 53.4384C77.6191 53.3739 77.6143 53.3065 77.6226 53.2401C77.6309 53.1737 77.6522 53.1095 77.6853 53.0514C77.7184 52.9932 77.7627 52.9421 77.8155 52.9011L77.8387 52.8824C77.8915 52.8413 77.9519 52.811 78.0164 52.7932C78.0809 52.7754 78.1483 52.7706 78.2146 52.7789C78.281 52.7872 78.3451 52.8086 78.4033 52.8417C78.4614 52.8749 78.5124 52.9192 78.5534 52.9721C78.5862 53.0143 78.6278 53.0489 78.6752 53.0735C78.7226 53.0981 78.7748 53.1123 78.8282 53.1149C78.8816 53.1175 78.9349 53.1085 78.9845 53.0886C79.0341 53.0687 79.0788 53.0383 79.1155 52.9995L80.4348 51.6017C80.5278 51.5037 80.6557 51.4465 80.7907 51.4428C80.9256 51.4391 81.0566 51.4891 81.1547 51.5819L81.1762 51.6023C81.2249 51.6483 81.264 51.7034 81.2913 51.7645C81.3186 51.8256 81.3336 51.8915 81.3355 51.9584C81.3373 52.0253 81.3259 52.0919 81.302 52.1545C81.2781 52.217 81.2421 52.2742 81.196 52.3227L79.147 54.487C79.0994 54.5373 79.0421 54.5773 78.9786 54.6046C78.915 54.6319 78.8466 54.646 78.7774 54.646V54.6472Z" fill="white"/>
<path d="M69.4517 73.015H39.4292C39.1693 73.015 38.9202 72.9117 38.7364 72.7278C38.5527 72.5439 38.4495 72.2945 38.4495 72.0345C38.4495 71.7744 38.5527 71.525 38.7364 71.3411C38.9202 71.1573 39.1693 71.054 39.4292 71.054H69.4517C69.7115 71.054 69.9607 71.1573 70.1444 71.3411C70.3281 71.525 70.4314 71.7744 70.4314 72.0345C70.4314 72.2945 70.3281 72.5439 70.1444 72.7278C69.9607 72.9117 69.7115 73.015 69.4517 73.015Z" fill="#13B4EE"/>
<path d="M52.4423 76.8863H39.4292C39.1693 76.8863 38.9202 76.783 38.7364 76.5991C38.5527 76.4152 38.4495 76.1658 38.4495 75.9058C38.4495 75.6458 38.5527 75.3964 38.7364 75.2125C38.9202 75.0286 39.1693 74.9253 39.4292 74.9253H52.4423C52.7021 74.9253 52.9513 75.0286 53.135 75.2125C53.3188 75.3964 53.422 75.6458 53.422 75.9058C53.422 76.1658 53.3188 76.4152 53.135 76.5991C52.9513 76.783 52.7021 76.8863 52.4423 76.8863Z" fill="#13B4EE"/>
<path d="M79.4234 77.8635C81.5723 77.8635 83.3144 76.1201 83.3144 73.9695C83.3144 71.8189 81.5723 70.0754 79.4234 70.0754C77.2745 70.0754 75.5325 71.8189 75.5325 73.9695C75.5325 76.1201 77.2745 77.8635 79.4234 77.8635Z" fill="#E6E6E6"/>
<path d="M78.7774 75.3691H78.7524C78.6794 75.3654 78.608 75.346 78.5431 75.3123C78.4782 75.2785 78.4214 75.2311 78.3765 75.1734L77.7258 74.3382C77.6848 74.2853 77.6546 74.2249 77.6368 74.1604C77.6191 74.0958 77.6143 74.0284 77.6226 73.962C77.6309 73.8956 77.6522 73.8315 77.6853 73.7733C77.7184 73.7151 77.7627 73.6641 77.8155 73.623L77.8387 73.6044C77.8915 73.5632 77.9519 73.5329 78.0164 73.5151C78.0809 73.4973 78.1483 73.4925 78.2146 73.5008C78.281 73.5091 78.3451 73.5305 78.4033 73.5637C78.4614 73.5968 78.5124 73.6411 78.5534 73.6941C78.5862 73.7362 78.6278 73.7708 78.6752 73.7954C78.7226 73.8201 78.7748 73.8342 78.8282 73.8368C78.8816 73.8394 78.9349 73.8304 78.9845 73.8105C79.0341 73.7906 79.0788 73.7602 79.1155 73.7214L80.4348 72.3236C80.5278 72.2256 80.6557 72.1685 80.7907 72.1647C80.9256 72.161 81.0566 72.211 81.1547 72.3038L81.1762 72.3242C81.2249 72.3702 81.264 72.4253 81.2913 72.4864C81.3186 72.5475 81.3336 72.6134 81.3355 72.6803C81.3373 72.7472 81.3259 72.8139 81.302 72.8764C81.2781 72.9389 81.2421 72.9961 81.196 73.0447L79.147 75.2089C79.0994 75.2592 79.0421 75.2992 78.9786 75.3265C78.915 75.3539 78.8466 75.3679 78.7774 75.3679V75.3691Z" fill="white"/>
<path d="M69.4517 93.7369H39.4292C39.1693 93.7369 38.9202 93.6336 38.7364 93.4497C38.5527 93.2658 38.4495 93.0164 38.4495 92.7564C38.4495 92.4963 38.5527 92.2469 38.7364 92.0631C38.9202 91.8792 39.1693 91.7759 39.4292 91.7759H69.4517C69.7115 91.7759 69.9607 91.8792 70.1444 92.0631C70.3281 92.2469 70.4314 92.4963 70.4314 92.7564C70.4314 93.0164 70.3281 93.2658 70.1444 93.4497C69.9607 93.6336 69.7115 93.7369 69.4517 93.7369Z" fill="#E6E6E6"/>
<path d="M52.4423 97.6082H39.4292C39.1693 97.6082 38.9202 97.5049 38.7364 97.321C38.5527 97.1372 38.4495 96.8878 38.4495 96.6277C38.4495 96.3677 38.5527 96.1183 38.7364 95.9344C38.9202 95.7505 39.1693 95.6472 39.4292 95.6472H52.4423C52.7021 95.6472 52.9513 95.7505 53.135 95.9344C53.3188 96.1183 53.422 96.3677 53.422 96.6277C53.422 96.8878 53.3188 97.1372 53.135 97.321C52.9513 97.5049 52.7021 97.6082 52.4423 97.6082Z" fill="#E6E6E6"/>
<path d="M79.4234 98.586C81.5723 98.586 83.3144 96.8425 83.3144 94.6919C83.3144 92.5413 81.5723 90.7979 79.4234 90.7979C77.2745 90.7979 75.5325 92.5413 75.5325 94.6919C75.5325 96.8425 77.2745 98.586 79.4234 98.586Z" fill="#E6E6E6"/>
<path d="M78.7774 96.0915H78.7524C78.6794 96.0878 78.608 96.0685 78.5431 96.0347C78.4782 96.0009 78.4214 95.9535 78.3765 95.8958L77.7258 95.0606C77.6848 95.0078 77.6546 94.9473 77.6368 94.8828C77.6191 94.8182 77.6143 94.7508 77.6226 94.6844C77.6309 94.618 77.6522 94.5539 77.6853 94.4957C77.7184 94.4375 77.7627 94.3865 77.8155 94.3454L77.8387 94.3268C77.8915 94.2856 77.9519 94.2553 78.0164 94.2375C78.0809 94.2197 78.1483 94.2149 78.2146 94.2232C78.281 94.2316 78.3451 94.2529 78.4033 94.2861C78.4614 94.3192 78.5124 94.3635 78.5534 94.4165C78.5862 94.4586 78.6278 94.4932 78.6752 94.5178C78.7226 94.5425 78.7748 94.5566 78.8282 94.5592C78.8816 94.5618 78.9349 94.5528 78.9845 94.5329C79.0341 94.513 79.0788 94.4826 79.1155 94.4438L80.4348 93.046C80.5278 92.948 80.6557 92.8909 80.7907 92.8872C80.9256 92.8834 81.0566 92.9334 81.1547 93.0262L81.1762 93.0466C81.2249 93.0926 81.264 93.1477 81.2913 93.2088C81.3186 93.2699 81.3336 93.3358 81.3355 93.4027C81.3373 93.4696 81.3259 93.5363 81.302 93.5988C81.2781 93.6613 81.2421 93.7185 81.196 93.7671L79.147 95.9313C79.0994 95.9816 79.0421 96.0216 78.9786 96.0489C78.915 96.0763 78.8466 96.0904 78.7774 96.0903V96.0915Z" fill="white"/>
<path d="M69.4517 114.459H39.4292C39.1693 114.459 38.9202 114.356 38.7364 114.172C38.5527 113.988 38.4495 113.739 38.4495 113.479C38.4495 113.219 38.5527 112.969 38.7364 112.785C38.9202 112.602 39.1693 112.498 39.4292 112.498H69.4517C69.7115 112.498 69.9607 112.602 70.1444 112.785C70.3281 112.969 70.4314 113.219 70.4314 113.479C70.4314 113.739 70.3281 113.988 70.1444 114.172C69.9607 114.356 69.7115 114.459 69.4517 114.459Z" fill="#E6E6E6"/>
<path d="M52.4423 118.331H39.4292C39.1693 118.331 38.9202 118.227 38.7364 118.043C38.5527 117.86 38.4495 117.61 38.4495 117.35C38.4495 117.09 38.5527 116.841 38.7364 116.657C38.9202 116.473 39.1693 116.37 39.4292 116.37H52.4423C52.7021 116.37 52.9513 116.473 53.135 116.657C53.3188 116.841 53.422 117.09 53.422 117.35C53.422 117.61 53.3188 117.86 53.135 118.043C52.9513 118.227 52.7021 118.331 52.4423 118.331Z" fill="#E6E6E6"/>
<path d="M79.4234 119.308C81.5723 119.308 83.3144 117.565 83.3144 115.414C83.3144 113.264 81.5723 111.52 79.4234 111.52C77.2745 111.52 75.5325 113.264 75.5325 115.414C75.5325 117.565 77.2745 119.308 79.4234 119.308Z" fill="#E6E6E6"/>
<path d="M78.7774 116.814H78.7524C78.6794 116.81 78.608 116.791 78.5431 116.757C78.4782 116.723 78.4214 116.676 78.3765 116.618L77.7258 115.783C77.6848 115.73 77.6546 115.67 77.6368 115.605C77.6191 115.541 77.6143 115.473 77.6226 115.407C77.6309 115.34 77.6522 115.276 77.6853 115.218C77.7184 115.16 77.7627 115.109 77.8155 115.068L77.8387 115.049C77.8915 115.008 77.9519 114.978 78.0164 114.96C78.0809 114.942 78.1483 114.937 78.2146 114.946C78.281 114.954 78.3451 114.975 78.4033 115.008C78.4614 115.042 78.5124 115.086 78.5534 115.139C78.5862 115.181 78.6278 115.216 78.6752 115.24C78.7226 115.265 78.7748 115.279 78.8282 115.282C78.8816 115.284 78.9349 115.275 78.9845 115.255C79.0341 115.235 79.0788 115.205 79.1155 115.166L80.4348 113.768C80.5278 113.67 80.6557 113.613 80.7907 113.61C80.9256 113.606 81.0566 113.656 81.1547 113.749L81.1762 113.769C81.2249 113.815 81.264 113.87 81.2913 113.931C81.3186 113.992 81.3336 114.058 81.3355 114.125C81.3373 114.192 81.3259 114.259 81.302 114.321C81.2781 114.384 81.2421 114.441 81.196 114.489L79.147 116.654C79.0994 116.704 79.0421 116.744 78.9786 116.771C78.915 116.799 78.8466 116.813 78.7774 116.813V116.814Z" fill="white"/>
<path d="M438.834 57.141H382.173C382.127 57.141 382.083 57.1226 382.05 57.0898C382.017 57.0571 381.999 57.0126 381.999 56.9663C381.999 55.7379 439.011 56.8684 439.011 56.9663C439.011 56.9895 439.006 57.0124 438.997 57.0338C438.989 57.0552 438.975 57.0746 438.959 57.0908C438.942 57.1071 438.923 57.1199 438.901 57.1285C438.88 57.1371 438.857 57.1414 438.834 57.141Z" fill="#090814"/>
<path d="M394.278 55.1894H389.125C388.986 55.1887 388.853 55.1332 388.755 55.0351C388.657 54.9369 388.602 54.804 388.601 54.6653V47.5557C388.602 47.4169 388.657 47.284 388.755 47.1859C388.853 47.0877 388.986 47.0323 389.125 47.0315H394.278C394.417 47.0323 394.549 47.0877 394.647 47.1859C394.745 47.284 394.801 47.4169 394.802 47.5557V54.6612C394.802 54.8007 394.747 54.9346 394.649 55.0336C394.551 55.1326 394.417 55.1887 394.278 55.1894Z" fill="#13B4EE"/>
<path d="M403.676 55.1895H398.523C398.385 55.1887 398.252 55.1332 398.154 55.0351C398.056 54.937 398 54.8041 398 54.6653V40.8096C398 40.6708 398.056 40.5379 398.154 40.4398C398.252 40.3416 398.385 40.2862 398.523 40.2854H403.676C403.815 40.2862 403.948 40.3416 404.046 40.4398C404.144 40.5379 404.199 40.6708 404.2 40.8096V54.6606C404.201 54.8002 404.146 54.9343 404.048 55.0335C403.949 55.1326 403.816 55.1887 403.676 55.1895Z" fill="#13B4EE"/>
<path d="M413.073 55.1894H407.92C407.781 55.1887 407.648 55.1332 407.55 55.0351C407.452 54.9369 407.397 54.804 407.396 54.6653V47.5557C407.397 47.4169 407.452 47.284 407.55 47.1859C407.648 47.0877 407.781 47.0323 407.92 47.0315H413.073C413.211 47.0323 413.344 47.0877 413.442 47.1859C413.54 47.284 413.596 47.4169 413.596 47.5557V54.6612C413.597 54.8007 413.542 54.9346 413.444 55.0336C413.345 55.1326 413.212 55.1887 413.073 55.1894Z" fill="#13B4EE"/>
<path d="M422.471 55.1894H417.318C417.182 55.1916 417.051 55.14 416.953 55.0459C416.855 54.9518 416.798 54.8227 416.794 54.6868V38.1245C416.798 37.9886 416.855 37.8595 416.953 37.7654C417.051 37.6713 417.182 37.6197 417.318 37.6219H422.471C422.607 37.6197 422.738 37.6713 422.836 37.7654C422.935 37.8595 422.992 37.9886 422.995 38.1245V54.6868C422.992 54.8227 422.935 54.9518 422.836 55.0459C422.738 55.14 422.607 55.1916 422.471 55.1894Z" fill="#13B4EE"/>
<path d="M431.87 55.19H426.717C426.578 55.1892 426.445 55.1337 426.347 55.0356C426.249 54.9375 426.194 54.8046 426.193 54.6658V33.3574C426.194 33.2186 426.249 33.0858 426.347 32.9876C426.445 32.8895 426.578 32.834 426.717 32.8333H431.87C432.009 32.834 432.141 32.8895 432.239 32.9876C432.337 33.0858 432.393 33.2186 432.394 33.3574V54.6629C432.394 54.8022 432.339 54.9358 432.24 55.0346C432.142 55.1333 432.009 55.1892 431.87 55.19Z" fill="#13B4EE"/>
</g>
<defs>
<clipPath id="clip0_148_2">
<rect width="465" height="271" fill="white"/>
</clipPath>
</defs>
</svg>
