<svg xmlns="http://www.w3.org/2000/svg" width="799.031" height="618.112"><path d="M129.891 616.539c0 .872.478 1.573 1.073 1.573h535.1c.6 0 1.073-.7 1.073-1.573s-.478-1.573-1.073-1.573h-535.1c-.595.001-1.073.701-1.073 1.573z" fill="#ccc"/><path fill="#b6b3c5" d="M305.162 611.354h19.105v3.371h-19.105zM474.295 611.917H493.4v3.371h-19.105z"/><path d="M426.676 461.323a27.529 27.529 0 0 1-54.321 0h-69.488v150.591h193.3V461.323z" fill="#d6d6e3"/><path fill="#090814" d="M303.43 599.983h193.296v5.242H303.43zM788.255 465.259H10.776A10.788 10.788 0 0 1 0 454.483V10.777A10.788 10.788 0 0 1 10.776 0h777.479a10.789 10.789 0 0 1 10.776 10.776v443.707a10.789 10.789 0 0 1-10.776 10.776z"/><path fill="#fff" d="M18.104 17.056h760.822v429.297H18.104z"/><path d="M422.548 251.491a24.524 24.524 0 0 1-24.524-24.528v-6.576a24.524 24.524 0 0 1 24.524-24.524 1.492 1.492 0 1 1 0 2.983 21.54 21.54 0 0 0-21.54 21.54v6.577a21.54 21.54 0 1 0 43.081 0v-11.841a1.492 1.492 0 1 1 2.983 0v11.841a24.524 24.524 0 0 1-24.524 24.528z"/><path d="M376.485 251.491a24.524 24.524 0 0 1-24.524-24.528v-11.841a1.492 1.492 0 1 1 2.983 0v11.841a21.54 21.54 0 1 0 43.081 0v-6.576a21.54 21.54 0 0 0-21.54-21.54 1.492 1.492 0 0 1 0-2.983 24.524 24.524 0 0 1 24.523 24.523v6.576a24.524 24.524 0 0 1-24.523 24.528zM445.58 174.497a1.492 1.492 0 0 1-1.492-1.492V154.58a21.54 21.54 0 1 0-43.081 0 1.492 1.492 0 1 1-2.983 0 24.524 24.524 0 1 1 49.047 0v18.425a1.492 1.492 0 0 1-1.491 1.492z"/><path d="M399.517 221.877a1.492 1.492 0 0 1-1.492-1.492V154.58a21.54 21.54 0 1 0-43.081 0v18.425a1.492 1.492 0 0 1-2.983 0V154.58a24.524 24.524 0 0 1 41.864-17.341 24.363 24.363 0 0 1 7.183 17.341v65.805a1.492 1.492 0 0 1-1.491 1.492zM431.236 218.587a1.492 1.492 0 1 1 0-2.983 21.54 21.54 0 1 0 0-43.081h-3.29a1.492 1.492 0 0 1 0-2.983h3.29a24.524 24.524 0 1 1 0 49.047z"/><path d="M424.428 172.523a1.492 1.492 0 1 1 0-2.983 11.67 11.67 0 1 0 0-23.339h-1.88a1.492 1.492 0 0 1 0-2.983h1.88a14.653 14.653 0 1 1 0 29.305zM424.428 243.417h-1.88a1.492 1.492 0 1 1 0-2.983h1.88a11.67 11.67 0 0 0 0-23.339 1.492 1.492 0 0 1 0-2.983 14.653 14.653 0 0 1 0 29.305zM367.796 218.587a24.524 24.524 0 0 1 0-49.047h3.29a1.492 1.492 0 1 1 0 2.983h-3.29a21.54 21.54 0 0 0 0 43.081 1.492 1.492 0 0 1 0 2.983z"/><path d="M374.603 172.523a14.653 14.653 0 0 1 0-29.305h1.88a1.492 1.492 0 1 1 0 2.983h-1.88a11.67 11.67 0 0 0 0 23.339 1.492 1.492 0 0 1 0 2.983zM376.484 243.417h-1.88a14.653 14.653 0 0 1 0-29.305 1.492 1.492 0 0 1 0 2.983 11.67 11.67 0 0 0 0 23.339h1.88a1.492 1.492 0 1 1 0 2.983z"/><g transform="translate(303.528 280.597)" fill="#6751D1"><rect width="29.619" height="7.13" rx="3.565" transform="translate(37.298)"/><rect width="10.421" height="7.13" rx="3.565" transform="translate(159.064)"/><rect width="10.421" height="7.13" rx="3.565" transform="translate(179.908)"/><rect width="70.756" height="7.13" rx="3.565" transform="translate(77.338)"/><rect width="29.619" height="7.13" rx="3.565" transform="translate(.001 46.074)"/><rect width="10.421" height="7.13" rx="3.565" transform="translate(121.767 46.074)"/><rect width="10.421" height="7.13" rx="3.565" transform="translate(142.61 46.074)"/><rect width="70.756" height="7.13" rx="3.565" transform="translate(40.041 46.074)"/><rect width="29.619" height="7.13" rx="3.565" transform="translate(122.316 15.906)"/><rect width="29.619" height="7.13" rx="3.565" transform="translate(.001 15.906)"/><rect width="10.421" height="7.13" rx="3.565" transform="translate(.001)"/><rect width="10.421" height="7.13" rx="3.565" transform="translate(0 31.264)"/><rect width="70.756" height="7.13" rx="3.565" transform="translate(41.686 15.906)"/><rect width="29.619" height="7.13" rx="3.565" transform="translate(60.884 31.264)"/><rect width="29.619" height="7.13" rx="3.565" transform="translate(20.843 31.264)"/><rect width="10.421" height="7.13" rx="3.565" transform="translate(18.675)"/><rect width="10.421" height="7.13" rx="3.565" transform="translate(181.553 31.264)"/><rect width="70.756" height="7.13" rx="3.565" transform="translate(100.375 31.264)"/></g><g transform="translate(66.071 371.525)"><path d="M158.694 37.998H81.51a1.546 1.546 0 0 1-1.544-1.544V21.91h.618v14.548a.928.928 0 0 0 .927.927h77.184a.928.928 0 0 0 .927-.927v-14.65h.618v14.65a1.546 1.546 0 0 1-1.546 1.54z" fill="#3f3d56"/><path fill="#3f3d56" d="M5.3 21.601h181.374v.618H5.3z"/><circle cx="5.313" cy="5.313" transform="translate(.001 16.549)" fill="#6751D1" r="5.313"/><circle cx="5.313" cy="5.313" transform="translate(53.991 16.549)" fill="#6751D1" r="5.313"/><circle cx="5.313" cy="5.313" transform="translate(90.634 32.165)" fill="#3f3d56" r="5.313"/><circle cx="5.313" cy="5.313" transform="translate(118.489 32.165)" fill="#ccc" r="5.313"/><circle cx="5.313" cy="5.313" transform="translate(104.991 16.549)" fill="#6751D1" r="5.313"/><circle cx="5.313" cy="5.313" transform="translate(180.632 16.549)" fill="#6751D1" r="5.313"/><circle cx="5.313" cy="5.313" transform="translate(154.616 16.549)" fill="#6751D1" r="5.313"/><path d="M21.789 22.219a.309.309 0 0 1-.309-.309V6.664a1.546 1.546 0 0 1 1.544-1.544h15.035a.309.309 0 1 1 0 .618h-15.03a.928.928 0 0 0-.927.927v15.246a.309.309 0 0 1-.309.309z" fill="#3f3d56"/><circle cx="5.313" cy="5.313" transform="translate(33.452)" fill="#e6e6e6" r="5.313"/><path d="M140.702 21.91h-.618V6.664a1.546 1.546 0 0 1 1.544-1.544h15.035v.618h-15.03a.928.928 0 0 0-.927.927z" fill="#3f3d56"/><circle cx="5.313" cy="5.313" transform="translate(152.058)" fill="#e6e6e6" r="5.313"/></g><path d="M571.528 337.863c-2.221 0-4.027.792-4.027 1.764v1.411c0 .973 1.806 1.764 4.027 1.764h93.434c2.221 0 4.027-.792 4.027-1.764v-1.411c0-.973-1.806-1.764-4.027-1.764zM747.12 375.843c4 0 7.249 1.75 7.249 3.9v30.351c0 2.152-3.252 3.9-7.249 3.9H574.75c-4 0-7.249-1.75-7.249-3.9v-30.349c0-2.152 3.252-3.9 7.249-3.9M571.528 347.465c-2.221 0-4.027.973-4.027 2.168s1.806 2.168 4.027 2.168h143.373c2.221 0 4.027-.973 4.027-2.168s-1.806-2.168-4.027-2.168zM571.528 356.465c-2.221 0-4.027.973-4.027 2.168s1.806 2.168 4.027 2.168h143.373c2.221 0 4.027-.973 4.027-2.168s-1.806-2.168-4.027-2.168z" fill="#f2f2f2"/><path d="M119.342 54.205H67.753a1.683 1.683 0 1 1 0-3.367h51.589a1.683 1.683 0 1 1 0 3.367zM90.114 60.851H67.753a1.683 1.683 0 1 1 0-3.367h22.361a1.683 1.683 0 1 1 0 3.367z" fill="#6751D1"/><g transform="translate(129.791 49.159)"><circle cx="6.686" cy="6.686" fill="#6751D1" r="6.686"/><path d="M5.576 9.089h-.043a.874.874 0 0 1-.646-.336L3.769 7.319a.875.875 0 0 1 .154-1.228l.04-.032a.874.874 0 0 1 1.228.154.638.638 0 0 0 .966.047l2.267-2.4a.876.876 0 0 1 1.237-.034l.037.035a.874.874 0 0 1 .034 1.237L6.211 8.814a.874.874 0 0 1-.635.273z" fill="#fff"/></g><path d="M119.342 89.785H67.753a1.683 1.683 0 1 1 0-3.367h51.589a1.683 1.683 0 1 1 0 3.367zM90.114 96.432H67.753a1.683 1.683 0 1 1 0-3.367h22.361a1.683 1.683 0 1 1 0 3.367z" fill="#6751D1"/><g transform="translate(129.791 84.739)"><circle cx="6.686" cy="6.686" fill="#e6e6e6" r="6.686"/><path d="M5.576 9.089h-.043a.874.874 0 0 1-.646-.336L3.769 7.319a.875.875 0 0 1 .154-1.228l.04-.032a.874.874 0 0 1 1.228.154.638.638 0 0 0 .966.047l2.267-2.4a.876.876 0 0 1 1.237-.034l.037.035a.874.874 0 0 1 .034 1.237L6.211 8.814a.874.874 0 0 1-.635.273z" fill="#fff"/></g><path d="M119.342 125.365H67.753a1.683 1.683 0 1 1 0-3.367h51.589a1.683 1.683 0 1 1 0 3.367zM90.114 132.012H67.753a1.683 1.683 0 1 1 0-3.367h22.361a1.683 1.683 0 1 1 0 3.367z" fill="#6751D1"/><g transform="translate(129.791 120.318)"><circle cx="6.686" cy="6.686" fill="#e6e6e6" r="6.686"/><path d="M5.576 9.089h-.043a.874.874 0 0 1-.646-.336L3.769 7.319a.875.875 0 0 1 .154-1.228l.04-.032a.874.874 0 0 1 1.228.154.638.638 0 0 0 .966.047l2.267-2.4a.876.876 0 0 1 1.237-.034l.037.035a.874.874 0 0 1 .034 1.237L6.211 8.814a.874.874 0 0 1-.635.273z" fill="#fff"/></g><path d="M119.342 160.944H67.753a1.683 1.683 0 1 1 0-3.367h51.589a1.683 1.683 0 1 1 0 3.367zM90.114 167.591H67.753a1.683 1.683 0 1 1 0-3.367h22.361a1.683 1.683 0 1 1 0 3.367z" fill="#e6e6e6"/><g transform="translate(129.791 155.898)"><circle cx="6.686" cy="6.686" fill="#e6e6e6" r="6.686"/><path d="M5.576 9.089h-.043a.874.874 0 0 1-.646-.336L3.769 7.319a.875.875 0 0 1 .154-1.228l.04-.032a.874.874 0 0 1 1.228.154.638.638 0 0 0 .966.047l2.267-2.4a.876.876 0 0 1 1.237-.034l.037.035a.874.874 0 0 1 .034 1.237L6.211 8.814a.874.874 0 0 1-.635.273z" fill="#fff"/></g><path d="M119.342 196.524H67.753a1.683 1.683 0 1 1 0-3.367h51.589a1.683 1.683 0 1 1 0 3.367zM90.114 203.171H67.753a1.683 1.683 0 1 1 0-3.367h22.361a1.683 1.683 0 1 1 0 3.367z" fill="#e6e6e6"/><g transform="translate(129.791 191.478)"><circle cx="6.686" cy="6.686" fill="#e6e6e6" r="6.686"/><path d="M5.576 9.089h-.043a.874.874 0 0 1-.646-.336L3.769 7.319a.875.875 0 0 1 .154-1.228l.04-.032a.874.874 0 0 1 1.228.154.638.638 0 0 0 .966.047l2.267-2.4a.876.876 0 0 1 1.237-.034l.037.035a.874.874 0 0 1 .034 1.237L6.211 8.814a.874.874 0 0 1-.635.273z" fill="#fff"/></g><g><path d="M754.068 98.11h-97.362a.3.3 0 0 1-.3-.3c0-2.109 97.967-.168 97.967 0a.3.3 0 0 1-.305.3z" fill="#090814"/><path d="M677.506 94.759h-8.855a.905.905 0 0 1-.9-.9V81.652a.905.905 0 0 1 .9-.9h8.855a.905.905 0 0 1 .9.9v12.2a.905.905 0 0 1-.9.907zM693.656 94.759h-8.855a.905.905 0 0 1-.9-.9v-23.79a.905.905 0 0 1 .9-.9h8.855a.905.905 0 0 1 .9.9v23.782a.905.905 0 0 1-.9.908zM709.802 94.759h-8.855a.905.905 0 0 1-.9-.9V81.652a.905.905 0 0 1 .9-.9h8.855a.905.905 0 0 1 .9.9v12.2a.905.905 0 0 1-.9.907zM725.952 94.759h-8.855a.886.886 0 0 1-.9-.863V65.459a.886.886 0 0 1 .9-.863h8.855a.886.886 0 0 1 .9.863v28.437a.886.886 0 0 1-.9.863zM742.102 94.76h-8.855a.905.905 0 0 1-.9-.9V57.274a.905.905 0 0 1 .9-.9h8.855a.905.905 0 0 1 .9.9v36.581a.905.905 0 0 1-.9.905z" fill="#6751D1"/></g></svg>