<svg width="465" height="360" fill="none" xmlns="http://www.w3.org/2000/svg"><g clip-path="url(#a)"><path d="M75.59 359.084c0 .508.279.916.625.916H387.62c.349 0 .625-.408.625-.916 0-.509-.279-.916-.625-.916H76.215c-.346 0-.624.408-.624.916z" fill="#CCC"/><path d="M188.709 356.064H177.59v1.963h11.119v-1.963zM287.137 356.392h-11.119v1.963h11.119v-1.963z" fill="#B6B3C5"/><path d="M248.306 268.683a16.034 16.034 0 0 1-5.443 9.612 16.008 16.008 0 0 1-20.727 0 16.038 16.038 0 0 1-5.442-9.612h-40.439v87.707h112.492v-87.707h-40.441z" fill="#D6D6E3"/><path d="M289.072 349.441H176.583v3.053h112.489v-3.053zM458.729 270.976H6.271A6.285 6.285 0 0 1 0 264.699V6.277A6.286 6.286 0 0 1 1.839 1.84 6.276 6.276 0 0 1 6.27 0H458.73A6.278 6.278 0 0 1 465 6.276V264.7a6.284 6.284 0 0 1-6.271 6.277z" fill="#090814"/><path d="M453.3 9.934H10.536v250.03H453.3V9.934z" fill="#fff"/><path d="M245.904 146.473a14.255 14.255 0 0 1-10.093-4.184 14.294 14.294 0 0 1-4.179-10.102v-3.829c0-3.789 1.504-7.422 4.18-10.1a14.267 14.267 0 0 1 10.092-4.184.873.873 0 0 1 .891.869.873.873 0 0 1-.891.869 12.529 12.529 0 0 0-8.864 3.674 12.55 12.55 0 0 0-3.671 8.871v3.83c0 3.328 1.32 6.519 3.671 8.872a12.533 12.533 0 0 0 21.4-8.872v-6.896a.872.872 0 0 1 .53-.823.872.872 0 0 1 .96.194.878.878 0 0 1 .246.629v6.896a14.301 14.301 0 0 1-4.18 10.102 14.273 14.273 0 0 1-10.092 4.184z" fill="#000"/><path d="M219.097 146.473a14.263 14.263 0 0 1-10.092-4.184 14.28 14.28 0 0 1-4.18-10.102v-6.896a.873.873 0 0 1 .868-.892.873.873 0 0 1 .809.553.872.872 0 0 1 .059.339v6.896c0 3.328 1.321 6.519 3.672 8.871a12.53 12.53 0 0 0 17.728 0 12.548 12.548 0 0 0 3.672-8.871v-3.83a12.56 12.56 0 0 0-3.672-8.871 12.54 12.54 0 0 0-8.864-3.674.87.87 0 0 1 0-1.737c3.785 0 7.415 1.505 10.091 4.183a14.291 14.291 0 0 1 4.181 10.099v3.83a14.301 14.301 0 0 1-4.179 10.101 14.272 14.272 0 0 1-10.093 4.185zM259.307 101.63a.868.868 0 0 1-.868-.869v-10.73c0-3.328-1.321-6.52-3.671-8.872a12.532 12.532 0 0 0-21.4 8.871.86.86 0 0 1-.531.823.864.864 0 0 1-.959-.194.86.86 0 0 1-.246-.629 14.29 14.29 0 0 1 8.789-13.278 14.26 14.26 0 0 1 15.606 3.12 14.28 14.28 0 0 1 4.148 10.158v10.731a.869.869 0 0 1-.868.869z" fill="#000"/><path d="M232.501 129.225a.868.868 0 0 1-.868-.869V90.03a12.55 12.55 0 0 0-3.672-8.871 12.53 12.53 0 0 0-17.728 0 12.55 12.55 0 0 0-3.672 8.871v10.731a.868.868 0 0 1-1.736 0v-10.73a14.3 14.3 0 0 1 2.406-7.936 14.272 14.272 0 0 1 14.65-6.073 14.27 14.27 0 0 1 7.307 3.908 14.194 14.194 0 0 1 4.181 10.1v38.326a.867.867 0 0 1-.868.869zM250.96 127.309a.872.872 0 0 1-.823-.531.872.872 0 0 1 .484-1.147.872.872 0 0 1 .339-.059 12.53 12.53 0 0 0 8.864-3.675 12.55 12.55 0 0 0 0-17.742 12.529 12.529 0 0 0-8.864-3.674h-1.915a.869.869 0 0 1 0-1.738h1.915a14.259 14.259 0 0 1 10.15 4.151 14.29 14.29 0 0 1 0 20.264 14.247 14.247 0 0 1-4.661 3.09 14.248 14.248 0 0 1-5.489 1.061z" fill="#000"/><path d="M246.998 100.481a.873.873 0 0 1-.891-.869.87.87 0 0 1 .891-.869 6.784 6.784 0 0 0 4.843-1.968 6.797 6.797 0 0 0 1.488-7.444 6.797 6.797 0 0 0-3.713-3.682 6.786 6.786 0 0 0-2.618-.499h-1.094a.868.868 0 0 1-.6-1.475.868.868 0 0 1 .6-.262h1.094a8.522 8.522 0 0 1 7.942 5.252 8.54 8.54 0 0 1-4.657 11.186 8.53 8.53 0 0 1-3.285.63zM246.998 141.771h-1.094a.873.873 0 0 1-.891-.869.872.872 0 0 1 .552-.809.873.873 0 0 1 .339-.06h1.094a6.796 6.796 0 0 0 6.728-6.796 6.796 6.796 0 0 0-6.728-6.797.87.87 0 0 1 0-1.737c2.249.018 4.4.926 5.984 2.524a8.54 8.54 0 0 1 0 12.019 8.524 8.524 0 0 1-5.984 2.525zM214.041 127.309a14.265 14.265 0 0 1-10.033-4.215 14.288 14.288 0 0 1 0-20.135 14.266 14.266 0 0 1 10.033-4.216h1.914a.864.864 0 0 1 .629.247.869.869 0 0 1-.629 1.491h-1.914a12.529 12.529 0 0 0-8.864 3.674 12.551 12.551 0 0 0 0 17.742 12.53 12.53 0 0 0 8.864 3.675.87.87 0 0 1 0 1.737z" fill="#000"/><path d="M218.002 100.481a8.526 8.526 0 0 1-5.984-2.525 8.538 8.538 0 0 1 0-12.019 8.524 8.524 0 0 1 5.984-2.524h1.094a.867.867 0 0 1 .823 1.206.867.867 0 0 1-.823.531h-1.094a6.796 6.796 0 0 0-6.728 6.797 6.796 6.796 0 0 0 6.728 6.796.868.868 0 0 1 0 1.738zM219.097 141.771h-1.094a8.536 8.536 0 0 1 0-17.068.87.87 0 0 1 0 1.737 6.79 6.79 0 0 0-4.762 2.013 6.8 6.8 0 0 0 0 9.568 6.788 6.788 0 0 0 4.762 2.012h1.094a.873.873 0 0 1 .891.869.873.873 0 0 1-.891.869z" fill="#000"/><path d="M213.508 163.425H200.42a2.075 2.075 0 0 0 0 4.152h13.088a2.074 2.074 0 0 0 2.074-2.076 2.074 2.074 0 0 0-2.074-2.076zM273.198 163.425h-1.916a2.075 2.075 0 0 0-2.074 2.076c0 1.147.929 2.076 2.074 2.076h1.916a2.075 2.075 0 0 0 2.074-2.076 2.075 2.075 0 0 0-2.074-2.076zM285.328 163.425h-1.915a2.075 2.075 0 0 0 0 4.152h1.915a2.075 2.075 0 0 0 0-4.152zM260.749 163.425h-37.027a2.075 2.075 0 0 0 0 4.152h37.027a2.075 2.075 0 0 0 0-4.152zM191.803 190.259h-13.088a2.076 2.076 0 0 0 0 4.153h13.088a2.076 2.076 0 0 0 0-4.153zM251.492 190.259h-1.915c-1.146 0-2.074.93-2.074 2.077 0 1.146.928 2.076 2.074 2.076h1.915a2.076 2.076 0 0 0 0-4.153zM263.622 190.259h-1.915a2.076 2.076 0 0 0 0 4.153h1.915a2.076 2.076 0 0 0 0-4.153zM239.044 190.259h-37.028a2.076 2.076 0 0 0 0 4.153h37.028c1.146 0 2.074-.93 2.074-2.076a2.075 2.075 0 0 0-2.074-2.077zM262.984 172.689h-13.087a2.075 2.075 0 0 0 0 4.152h13.087a2.075 2.075 0 0 0 0-4.152zM191.803 172.689h-13.088a2.075 2.075 0 0 0 0 4.152h13.088a2.075 2.075 0 0 0 2.074-2.076 2.075 2.075 0 0 0-2.074-2.076zM180.63 163.425h-1.915a2.075 2.075 0 0 0 0 4.152h1.915a2.075 2.075 0 0 0 0-4.152zM180.63 181.634h-1.916a2.075 2.075 0 0 0-2.074 2.076c0 1.147.929 2.076 2.074 2.076h1.916a2.075 2.075 0 0 0 2.074-2.076 2.075 2.075 0 0 0-2.074-2.076zM240.001 172.689h-37.027a2.075 2.075 0 0 0 0 4.152h37.027a2.075 2.075 0 0 0 0-4.152zM227.234 181.634h-13.088a2.075 2.075 0 0 0 0 4.152h13.088a2.075 2.075 0 0 0 2.074-2.076 2.075 2.075 0 0 0-2.074-2.076zM203.932 181.634h-13.088a2.075 2.075 0 0 0 0 4.152h13.088a2.075 2.075 0 0 0 2.074-2.076 2.075 2.075 0 0 0-2.074-2.076zM191.498 163.425h-1.916a2.075 2.075 0 0 0-2.074 2.076c0 1.147.929 2.076 2.074 2.076h1.916a2.075 2.075 0 0 0 2.074-2.076 2.075 2.075 0 0 0-2.074-2.076zM286.285 181.634h-1.915a2.075 2.075 0 0 0 0 4.152h1.915a2.075 2.075 0 0 0 0-4.152zM274.155 181.634h-37.027a2.075 2.075 0 0 0 0 4.152h37.027a2.075 2.075 0 0 0 0-4.152z" fill="#13B4EE"/><path d="M130.803 238.514H85.885a.896.896 0 0 1-.898-.899v-8.471h.36v8.473a.539.539 0 0 0 .539.54h44.918a.539.539 0 0 0 .539-.54v-8.533h.36v8.533a.899.899 0 0 1-.9.897z" fill="#3F3D56"/><path d="M147.086 228.964H41.535v.36h105.551v-.36z" fill="#3F3D56"/><path d="M41.543 232.21a3.093 3.093 0 0 0 3.092-3.094 3.094 3.094 0 0 0-3.092-3.095 3.094 3.094 0 0 0-3.092 3.095 3.093 3.093 0 0 0 3.092 3.094zM72.963 232.21a3.093 3.093 0 0 0 3.092-3.094 3.094 3.094 0 0 0-3.092-3.095 3.094 3.094 0 0 0-3.092 3.095 3.093 3.093 0 0 0 3.092 3.094z" fill="#13B4EE"/><path d="M94.287 241.305a3.093 3.093 0 0 0 3.092-3.094 3.094 3.094 0 0 0-3.092-3.095 3.094 3.094 0 0 0-3.092 3.095 3.093 3.093 0 0 0 3.092 3.094z" fill="#3F3D56"/><path d="M110.498 241.305a3.092 3.092 0 0 0 3.091-3.094 3.093 3.093 0 0 0-3.091-3.095 3.093 3.093 0 0 0-3.092 3.095 3.093 3.093 0 0 0 3.092 3.094z" fill="#CCC"/><path d="M102.642 232.21a3.093 3.093 0 0 0 3.092-3.094 3.093 3.093 0 0 0-3.092-3.095 3.094 3.094 0 0 0-3.092 3.095 3.093 3.093 0 0 0 3.092 3.094zM146.662 232.21a3.093 3.093 0 0 0 3.092-3.094 3.093 3.093 0 0 0-3.092-3.095 3.093 3.093 0 0 0-3.092 3.095 3.093 3.093 0 0 0 3.092 3.094zM131.522 232.21a3.094 3.094 0 0 0 0-6.189 3.093 3.093 0 0 0-3.092 3.095 3.093 3.093 0 0 0 3.092 3.094z" fill="#13B4EE"/><path d="M51.13 229.324a.18.18 0 0 1-.18-.18v-8.88a.899.899 0 0 1 .9-.899h8.749a.179.179 0 0 1 .18.18.18.18 0 0 1-.18.18h-8.747a.54.54 0 0 0-.54.54v8.879a.182.182 0 0 1-.052.128.182.182 0 0 1-.127.052h-.002z" fill="#3F3D56"/><path d="M61.01 222.572a3.094 3.094 0 0 0 3.092-3.095 3.093 3.093 0 1 0-6.184 0 3.094 3.094 0 0 0 3.092 3.095z" fill="#E6E6E6"/><path d="M120.333 229.144h-.36v-8.88a.9.9 0 0 1 .898-.899h8.75v.36h-8.747a.539.539 0 0 0-.539.54l-.002 8.879z" fill="#3F3D56"/><path d="M130.033 222.572a3.093 3.093 0 0 0 3.092-3.095 3.093 3.093 0 1 0-6.184 0 3.094 3.094 0 0 0 3.092 3.095z" fill="#E6E6E6"/><path d="M332.604 196.778c-1.293 0-2.344.461-2.344 1.027v.822c0 .567 1.051 1.027 2.344 1.027h54.374c1.292 0 2.343-.461 2.343-1.027v-.822c0-.566-1.051-1.027-2.343-1.027h-54.374zM434.79 218.898c2.328 0 4.219 1.019 4.219 2.271v17.677c0 1.254-1.893 2.272-4.219 2.272H334.479c-2.328 0-4.219-1.019-4.219-2.272v-17.675c0-1.254 1.893-2.272 4.219-2.272M332.604 202.37c-1.293 0-2.344.567-2.344 1.263s1.051 1.262 2.344 1.262h83.436c1.293 0 2.344-.566 2.344-1.262 0-.696-1.051-1.263-2.344-1.263h-83.436zM332.604 207.612c-1.293 0-2.344.567-2.344 1.262 0 .696 1.051 1.263 2.344 1.263h83.436c1.293 0 2.344-.567 2.344-1.263 0-.695-1.051-1.262-2.344-1.262h-83.436z" fill="#F2F2F2"/><path d="M69.452 31.57H39.429a.98.98 0 0 1 0-1.961h30.023a.98.98 0 0 1 .692 1.674.98.98 0 0 1-.692.287zM52.442 35.44H39.43a.98.98 0 0 1 0-1.96h13.013a.98.98 0 0 1 .693 1.674.98.98 0 0 1-.693.287zM79.423 36.42a3.893 3.893 0 0 0 3.891-3.895 3.893 3.893 0 0 0-3.89-3.894 3.892 3.892 0 0 0-3.892 3.894 3.892 3.892 0 0 0 3.891 3.894z" fill="#13B4EE"/><path d="M78.777 33.925h-.025a.507.507 0 0 1-.376-.196l-.65-.835a.511.511 0 0 1 .09-.715l.023-.019a.509.509 0 0 1 .714.09.37.37 0 0 0 .563.027l1.319-1.398a.51.51 0 0 1 .72-.02l.021.02a.507.507 0 0 1 .02.721l-2.049 2.165a.508.508 0 0 1-.37.159z" fill="#fff"/><path d="M69.452 52.292H39.429a.98.98 0 0 1 0-1.96h30.023a.98.98 0 0 1 .692 1.673.98.98 0 0 1-.692.287zM52.442 56.164H39.43a.98.98 0 0 1 0-1.961h13.013a.98.98 0 0 1 .693 1.674.98.98 0 0 1-.693.287z" fill="#13B4EE"/><path d="M79.423 57.142a3.893 3.893 0 0 0 3.891-3.894 3.893 3.893 0 0 0-3.89-3.895 3.892 3.892 0 0 0-3.892 3.895 3.892 3.892 0 0 0 3.891 3.894z" fill="#E6E6E6"/><path d="M78.777 54.647h-.025a.509.509 0 0 1-.376-.195l-.65-.836a.513.513 0 0 1 .09-.715l.023-.019a.51.51 0 0 1 .714.09.37.37 0 0 0 .563.027l1.319-1.397a.51.51 0 0 1 .72-.02l.021.02a.508.508 0 0 1 .02.72l-2.049 2.165a.508.508 0 0 1-.37.159v.001z" fill="#fff"/><path d="M69.452 73.015H39.429a.98.98 0 0 1 0-1.961h30.023a.98.98 0 0 1 0 1.961zM52.442 76.886H39.43a.98.98 0 0 1 0-1.96h13.013a.98.98 0 0 1 .693 1.673.98.98 0 0 1-.693.287z" fill="#13B4EE"/><path d="M79.423 77.864a3.893 3.893 0 0 0 3.891-3.895 3.893 3.893 0 0 0-3.89-3.894 3.893 3.893 0 0 0-3.892 3.894 3.892 3.892 0 0 0 3.891 3.895z" fill="#E6E6E6"/><path d="M78.777 75.37h-.025a.51.51 0 0 1-.376-.197l-.65-.835a.513.513 0 0 1 .09-.715l.023-.019a.509.509 0 0 1 .714.09.371.371 0 0 0 .563.027l1.319-1.397a.51.51 0 0 1 .72-.02l.021.02a.508.508 0 0 1 .02.72l-2.049 2.165a.508.508 0 0 1-.37.159v.001z" fill="#fff"/><path d="M69.452 93.737H39.429a.98.98 0 0 1 0-1.961h30.023a.98.98 0 0 1 .692 1.674.98.98 0 0 1-.692.287zM52.442 97.608H39.43a.98.98 0 0 1 0-1.96h13.013a.98.98 0 0 1 .693 1.673.98.98 0 0 1-.693.287zM79.423 98.586a3.893 3.893 0 0 0 3.891-3.894 3.893 3.893 0 0 0-3.89-3.894 3.892 3.892 0 0 0-3.892 3.894 3.893 3.893 0 0 0 3.891 3.894z" fill="#E6E6E6"/><path d="M78.777 96.091h-.025a.509.509 0 0 1-.376-.195l-.65-.835a.512.512 0 0 1 .09-.716l.023-.018a.509.509 0 0 1 .714.09.371.371 0 0 0 .563.027l1.319-1.398a.51.51 0 0 1 .72-.02l.021.02a.508.508 0 0 1 .02.721l-2.049 2.164a.508.508 0 0 1-.37.16z" fill="#fff"/><path d="M69.452 114.459H39.429a.979.979 0 0 1-.98-.98.983.983 0 0 1 .98-.981h30.023a.983.983 0 0 1 .98.981.98.98 0 0 1-.98.98zM52.442 118.331H39.43a.98.98 0 0 1 0-1.961h13.013a.978.978 0 0 1 .693 1.673.98.98 0 0 1-.693.288zM79.423 119.308a3.892 3.892 0 0 0 3.891-3.894 3.893 3.893 0 0 0-3.89-3.894 3.893 3.893 0 0 0-3.892 3.894 3.892 3.892 0 0 0 3.891 3.894z" fill="#E6E6E6"/><path d="M78.777 116.814h-.025a.51.51 0 0 1-.376-.196l-.65-.835a.51.51 0 0 1 .09-.715l.023-.019a.515.515 0 0 1 .564-.041c.058.034.11.078.15.131a.372.372 0 0 0 .431.116c.05-.02.095-.05.132-.089l1.319-1.398a.507.507 0 0 1 .72-.019l.021.02a.509.509 0 0 1 .02.72l-2.049 2.165a.507.507 0 0 1-.37.159v.001z" fill="#fff"/><path d="M438.834 57.141h-56.661a.174.174 0 0 1-.174-.175c0-1.228 57.012-.098 57.012 0a.174.174 0 0 1-.014.068.166.166 0 0 1-.096.095.17.17 0 0 1-.067.012z" fill="#090814"/><path d="M394.278 55.19h-5.153a.527.527 0 0 1-.524-.525v-7.11a.528.528 0 0 1 .524-.523h5.153a.524.524 0 0 1 .524.524v7.105a.53.53 0 0 1-.524.528zM403.676 55.19h-5.153a.527.527 0 0 1-.523-.525V40.81a.524.524 0 0 1 .523-.525h5.153a.527.527 0 0 1 .524.525v13.85a.526.526 0 0 1-.524.53zM413.073 55.19h-5.153a.527.527 0 0 1-.524-.525v-7.11a.528.528 0 0 1 .524-.523h5.153a.526.526 0 0 1 .523.524v7.105a.524.524 0 0 1-.523.528zM422.471 55.19h-5.153a.515.515 0 0 1-.524-.503V38.124a.519.519 0 0 1 .524-.502h5.153a.515.515 0 0 1 .524.502v16.563a.515.515 0 0 1-.524.503zM431.87 55.19h-5.153a.527.527 0 0 1-.524-.524V33.357a.528.528 0 0 1 .524-.524h5.153a.524.524 0 0 1 .524.524v21.306a.525.525 0 0 1-.524.527z" fill="#13B4EE"/></g><defs><clipPath id="a"><path fill="#fff" d="M0 0h465v360H0z"/></clipPath></defs></svg>