<svg width="64" height="65" viewBox="0 0 64 65" fill="none" xmlns="http://www.w3.org/2000/svg">
<path d="M0 32.5757C0 14.9026 14.3269 0.575684 32 0.575684C49.6731 0.575684 64 14.9026 64 32.5757C64 50.2488 49.6731 64.5757 32 64.5757C14.3269 64.5757 0 50.2488 0 32.5757Z" fill="url(#paint0_radial_1_7140)"/>
<g clip-path="url(#clip0_1_7140)">
<path d="M47.8334 19.2424H42L44.9 23.5924C45.0834 23.8758 44.8834 24.2424 44.55 24.2424H41.2167C40.6667 24.2424 40.1334 23.9591 39.8334 23.4924L37 19.2424H33.6667L36.5667 23.5924C36.75 23.8758 36.55 24.2424 36.2167 24.2424H32.8834C32.3334 24.2424 31.8 23.9591 31.5 23.4924L28.6667 19.2424H25.3334L28.2334 23.5924C28.4167 23.8758 28.2167 24.2424 27.8834 24.2424H24.55C24 24.2424 23.4834 23.9591 23.1667 23.4924L20.3334 19.2424H18.6667C16.8334 19.2424 15.35 20.7424 15.35 22.5758L15.3334 42.5758C15.3334 44.4091 16.8334 45.9091 18.6667 45.9091H45.3334C47.1667 45.9091 48.6667 44.4091 48.6667 42.5758V20.0758C48.6667 19.6091 48.3 19.2424 47.8334 19.2424ZM30.75 37.9924L28.6667 42.5758L26.5834 37.9924L22 35.9091L26.5834 33.8258L28.6667 29.2424L30.75 33.8258L35.3334 35.9091L30.75 37.9924ZM40.2334 32.4758L38.6667 35.9091L37.1 32.4758L33.6667 30.9091L37.1 29.3424L38.6667 25.9091L40.2334 29.3424L43.6667 30.9091L40.2334 32.4758Z" fill="white"/>
</g>
<defs>
<radialGradient id="paint0_radial_1_7140" cx="0" cy="0" r="1" gradientUnits="userSpaceOnUse" gradientTransform="translate(64 0.575679) rotate(112.23) scale(95.4583 223.205)">
<stop offset="0.0420757" stop-color="#13B4EE"/>
<stop offset="0.735" stop-color="#2DF8FA"/>
</radialGradient>
<clipPath id="clip0_1_7140">
<rect width="40" height="40" fill="white" transform="translate(12 12.5757)"/>
</clipPath>
</defs>
</svg>
