<svg width="135" height="32" viewBox="0 0 135 32" fill="none" xmlns="http://www.w3.org/2000/svg">
<path d="M134.225 8.19964V23.9906H131.182V8.19964H134.225ZM130.573 2.38368C130.573 1.2002 131.52 0.388672 132.703 0.388672C133.887 0.388672 134.834 1.2002 134.834 2.38368C134.834 3.56716 133.887 4.37869 132.703 4.37869C131.52 4.37869 130.573 3.56716 130.573 2.38368Z" fill="url(#paint0_radial_1_7350)"/>
<path d="M122.888 23.9694V21.5348C121.84 23.2931 119.541 24.3075 117.343 24.3075C113.015 24.3075 109.329 21.0614 109.329 16.057C109.329 11.0187 113.015 7.84024 117.343 7.84024C119.541 7.84024 121.806 8.75321 122.888 10.5453V8.17838H125.931V23.9694H122.888ZM122.854 16.0232C122.854 12.6418 120.183 10.8497 117.613 10.8497C114.773 10.8497 112.474 12.9123 112.474 16.0232C112.474 19.134 114.773 21.2981 117.613 21.2981C120.42 21.2981 122.854 19.3707 122.854 16.0232Z" fill="url(#paint1_radial_1_7350)"/>
<path d="M58.6039 16.7214V8.20038H61.6809V23.9914H58.6039V21.6244C57.6233 23.518 55.4254 24.3295 53.7009 24.3295C49.7447 24.3295 47.5806 21.7935 47.6144 17.3301V8.20038H50.6915V17.1272C50.6915 19.7985 51.9764 21.3201 54.1404 21.3201C56.3722 21.3201 58.6039 20.1028 58.6039 16.7214Z" fill="url(#paint2_radial_1_7350)"/>
<path d="M39.6166 16.7209V8.19983H42.6936V23.9908H39.6166V21.6239C38.636 23.5174 36.4381 24.329 34.7136 24.329C30.7574 24.329 28.5933 21.7929 28.6271 17.3295V8.19983H31.7041V17.1266C31.7041 19.7979 32.9891 21.3195 35.1531 21.3195C37.3848 21.3195 39.6166 20.1023 39.6166 16.7209Z" fill="url(#paint3_radial_1_7350)"/>
<path d="M20.6335 0.396973H23.6798V23.9807H20.6335V0.396973Z" fill="url(#paint4_radial_1_7350)"/>
<path d="M3.07705 8.19995V10.6684C4.15909 8.87623 6.35698 7.86182 8.58868 7.86182C12.9168 7.86182 16.5011 11.1417 16.5011 16.1462C16.5011 21.1506 12.9168 24.3291 8.58868 24.3291C6.35698 24.3291 4.15909 23.4161 3.07705 21.624V31.6667H0V8.19995H3.07705ZM3.11086 16.18C3.11086 19.5614 5.74833 21.3197 8.28436 21.3197C11.1247 21.3197 13.3902 19.3247 13.3902 16.18C13.3902 13.0353 11.1247 10.8712 8.28436 10.8712C5.51163 10.8712 3.11086 12.8324 3.11086 16.18Z" fill="url(#paint5_radial_1_7350)"/>
<path d="M87.2993 12.5398C87.3658 12.3657 87.6121 12.3657 87.6787 12.5398L88.0993 13.6399C88.311 14.1933 88.7537 14.6267 89.3115 14.8265L90.4492 15.2339C90.6287 15.2982 90.6287 15.552 90.4492 15.6163L89.3115 16.0237C88.7537 16.2235 88.311 16.6569 88.0993 17.2103L87.6787 18.3104C87.6121 18.4845 87.3658 18.4845 87.2993 18.3104L86.8786 17.2103C86.6669 16.6569 86.2242 16.2235 85.6664 16.0237L84.5287 15.6163C84.3493 15.552 84.3493 15.2982 84.5287 15.2339L85.6664 14.8265C86.2242 14.6267 86.6669 14.1933 86.8786 13.6399L87.2993 12.5398Z" fill="#30BBEB"/>
<path d="M77.155 12.5398C77.2215 12.3657 77.4678 12.3657 77.5344 12.5398L77.9551 13.6399C78.1667 14.1933 78.6094 14.6267 79.1672 14.8265L80.3049 15.2339C80.4844 15.2982 80.4844 15.552 80.3049 15.6163L79.1672 16.0237C78.6094 16.2235 78.1667 16.6569 77.9551 17.2103L77.5344 18.3104C77.4678 18.4845 77.2215 18.4845 77.155 18.3104L76.7343 17.2103C76.5226 16.6569 76.0799 16.2235 75.5221 16.0237L74.3845 15.6163C74.205 15.552 74.205 15.2982 74.3845 15.2339L75.5221 14.8265C76.0799 14.6267 76.5226 14.1933 76.7343 13.6399L77.155 12.5398Z" fill="#30BBEB"/>
<path fill-rule="evenodd" clip-rule="evenodd" d="M84.7598 2.47488C84.7598 3.37831 84.2004 4.15108 83.409 4.46568V7.30972H91.0732C93.0567 7.30972 94.874 8.0213 96.2837 9.2031V7.28703H99.2931V21.1394C99.2931 28.4954 95.9868 31.3548 90.8454 31.4177V31.4301H73.757C70.8152 31.4301 68.144 29.9703 66.6223 27.1525L66.6816 27.12L66.6817 27.12L66.6817 27.12L66.6821 27.1198C67.1554 26.8604 68.805 25.9565 69.1922 25.7945C70.139 27.5599 71.9987 28.5105 73.757 28.5105H90.8454C93.9901 28.4484 96.0622 26.6892 96.267 22.1117C94.8596 23.2852 93.0489 23.9911 91.0732 23.9911H73.941C69.459 23.9911 65.8257 20.3578 65.8257 15.8759V15.425C65.8257 10.9431 69.459 7.30972 73.941 7.30972H81.8311V4.46709C81.0379 4.1534 80.4767 3.37967 80.4767 2.47488C80.4767 1.29214 81.4355 0.333344 82.6183 0.333344C83.801 0.333344 84.7598 1.29214 84.7598 2.47488ZM91.0732 10.4657H73.941C71.202 10.4657 68.9816 12.686 68.9816 15.425V15.8759C68.9816 18.6148 71.202 20.8352 73.941 20.8352H91.0732C93.8122 20.8352 96.0326 18.6148 96.0326 15.8759V15.425C96.0326 12.686 93.8122 10.4657 91.0732 10.4657Z" fill="url(#paint6_radial_1_7350)"/>
<path d="M102.69 22.254C102.69 21.0367 103.704 20.1238 104.888 20.1238C106.105 20.1238 107.12 21.0367 107.12 22.254C107.12 23.4713 106.105 24.3505 104.888 24.3505C103.704 24.3505 102.69 23.4713 102.69 22.254Z" fill="#C2C2C2" fill-opacity="0.8"/>
<defs>
<radialGradient id="paint0_radial_1_7350" cx="0" cy="0" r="1" gradientUnits="userSpaceOnUse" gradientTransform="translate(133.949 1.14845) rotate(96.7161) scale(30.8121 24.5247)">
<stop offset="0.0420757" stop-color="#13B4EE"/>
<stop offset="0.735" stop-color="#2DF8FA"/>
</radialGradient>
<radialGradient id="paint1_radial_1_7350" cx="0" cy="0" r="1" gradientUnits="userSpaceOnUse" gradientTransform="translate(122.484 8.37035) rotate(123.333) scale(25.5542 80.3987)">
<stop offset="0.0420757" stop-color="#13B4EE"/>
<stop offset="0.735" stop-color="#2DF8FA"/>
</radialGradient>
<radialGradient id="paint2_radial_1_7350" cx="0" cy="0" r="1" gradientUnits="userSpaceOnUse" gradientTransform="translate(58.7599 8.7196) rotate(119.637) scale(24.0595 70.866)">
<stop offset="0.0420757" stop-color="#13B4EE"/>
<stop offset="0.735" stop-color="#2DF8FA"/>
</radialGradient>
<radialGradient id="paint3_radial_1_7350" cx="0" cy="0" r="1" gradientUnits="userSpaceOnUse" gradientTransform="translate(39.7726 8.71905) rotate(119.637) scale(24.0595 70.866)">
<stop offset="0.0420757" stop-color="#13B4EE"/>
<stop offset="0.735" stop-color="#2DF8FA"/>
</radialGradient>
<radialGradient id="paint4_radial_1_7350" cx="0" cy="0" r="1" gradientUnits="userSpaceOnUse" gradientTransform="translate(23.0472 1.15617) rotate(94.8164) scale(30.6854 17.5938)">
<stop offset="0.0420757" stop-color="#13B4EE"/>
<stop offset="0.735" stop-color="#2DF8FA"/>
</radialGradient>
<radialGradient id="paint5_radial_1_7350" cx="0" cy="0" r="1" gradientUnits="userSpaceOnUse" gradientTransform="translate(13.0746 8.62813) rotate(114.332) scale(33.8725 87.1456)">
<stop offset="0.0420757" stop-color="#13B4EE"/>
<stop offset="0.735" stop-color="#2DF8FA"/>
</radialGradient>
<radialGradient id="paint6_radial_1_7350" cx="0" cy="0" r="1" gradientUnits="userSpaceOnUse" gradientTransform="translate(92.3436 1.3344) rotate(125.072) scale(49.2623 158.759)">
<stop offset="0.0420757" stop-color="#13B4EE"/>
<stop offset="0.735" stop-color="#2DF8FA"/>
</radialGradient>
</defs>
</svg>
