<svg width="549.2" height="127.6" viewBox="0 0 549.2 127.6" fill="none" xmlns="http://www.w3.org/2000/svg">
<path d="M1365.92 80.0497V240.744H1334.95V80.0497H1365.92ZM1328.75 20.8646C1328.75 8.82113 1338.39 0.562744 1350.43 0.562744C1362.48 0.562744 1372.11 8.82113 1372.11 20.8646C1372.11 32.9081 1362.48 41.1665 1350.43 41.1665C1338.39 41.1665 1328.75 32.9081 1328.75 20.8646Z" fill="url(#paint0_radial_1_211)"/>
<path d="M1250.55 240.527V215.752C1239.88 233.645 1216.48 243.968 1194.12 243.968C1150.07 243.968 1112.57 210.935 1112.57 160.008C1112.57 108.737 1150.07 76.3918 1194.12 76.3918C1216.48 76.3918 1239.54 85.6825 1250.55 103.92V79.8328H1281.52V240.527H1250.55ZM1250.21 159.664C1250.21 125.254 1223.02 107.017 1196.87 107.017C1167.97 107.017 1144.57 128.007 1144.57 159.664C1144.57 191.321 1167.97 213.343 1196.87 213.343C1225.43 213.343 1250.21 193.73 1250.21 159.664Z" fill="url(#paint1_radial_1_211)"/>
<path d="M596.372 166.771V80.0579H627.685V240.752H596.372V216.665C586.393 235.935 564.027 244.193 546.478 244.193C506.218 244.193 484.196 218.386 484.54 172.965V80.0579H515.853V170.9C515.853 198.084 528.929 213.568 550.951 213.568C573.662 213.568 596.372 201.181 596.372 166.771Z" fill="url(#paint2_radial_1_211)"/>
<path d="M403.151 166.765V80.0518H434.464V240.746H403.151V216.659C393.172 235.929 370.806 244.187 353.256 244.187C312.997 244.187 290.974 218.38 291.319 172.959V80.0518H322.632V170.894C322.632 198.078 335.707 213.562 357.73 213.562C380.44 213.562 403.151 201.175 403.151 166.765Z" fill="url(#paint3_radial_1_211)"/>
<path d="M209.974 0.647217H240.973V240.643H209.974V0.647217Z" fill="url(#paint4_radial_1_211)"/>
<path d="M31.3131 80.0528V105.172C42.3242 86.9348 64.6907 76.6118 87.4013 76.6118C131.446 76.6118 167.921 109.989 167.921 160.916C167.921 211.843 131.446 244.188 87.4013 244.188C64.6907 244.188 42.3242 234.898 31.3131 216.66V318.858H0V80.0528H31.3131ZM31.6572 161.26C31.6572 195.67 58.4969 213.563 84.3044 213.563C113.209 213.563 136.263 193.262 136.263 161.26C136.263 129.259 113.209 107.237 84.3044 107.237C56.0882 107.237 31.6572 127.194 31.6572 161.26Z" fill="url(#paint5_radial_1_211)"/>
<path d="M888.383 124.224C889.062 122.451 891.571 122.451 892.25 124.224L896.523 135.399C898.68 141.039 903.192 145.456 908.877 147.492L920.433 151.631C922.262 152.286 922.262 154.873 920.433 155.528L908.877 159.666C903.192 161.702 898.68 166.119 896.523 171.759L892.25 182.934C891.571 184.708 889.062 184.708 888.383 182.934L884.11 171.759C881.953 166.119 877.441 161.702 871.756 159.666L860.2 155.528C858.371 154.873 858.371 152.286 860.2 151.631L871.756 147.492C877.441 145.456 881.953 141.039 884.11 135.399L888.383 124.224Z" fill="#30BBEB"/>
<path d="M785.152 124.224C785.83 122.451 788.34 122.451 789.018 124.224L793.292 135.399C795.448 141.039 799.96 145.456 805.645 147.492L817.201 151.631C819.03 152.286 819.03 154.873 817.201 155.528L805.645 159.666C799.96 161.702 795.448 166.119 793.292 171.759L789.018 182.934C788.34 184.708 785.83 184.708 785.152 182.934L780.878 171.759C778.722 166.119 774.209 161.702 768.525 159.666L756.969 155.528C755.14 154.873 755.14 152.286 756.969 151.631L768.525 147.492C774.209 145.456 778.722 141.039 780.878 135.399L785.152 124.224Z" fill="#30BBEB"/>
<path fill-rule="evenodd" clip-rule="evenodd" d="M862.545 21.793C862.545 30.9871 856.851 38.8514 848.798 42.0525V70.9941H926.792C946.976 70.9941 965.469 78.2352 979.815 90.2615V70.7633H1010.44V211.729C1010.44 286.587 976.793 315.685 924.473 316.325V316.452H750.576C720.639 316.452 693.455 301.596 677.971 272.921L678.574 272.59C683.386 269.954 700.181 260.751 704.122 259.102C713.757 277.067 732.683 286.74 750.576 286.74H924.473C956.474 286.109 977.561 268.206 979.645 221.625C965.323 233.566 946.896 240.75 926.792 240.75H752.448C706.838 240.75 669.864 203.776 669.864 158.166V153.578C669.864 107.968 706.838 70.9941 752.448 70.9941H832.74V42.0659C824.668 38.8734 818.959 30.9999 818.959 21.793C818.959 9.75704 828.716 0 840.752 0C852.788 0 862.545 9.75704 862.545 21.793ZM926.792 103.11H752.448C724.575 103.11 701.98 125.705 701.98 153.578V158.166C701.98 186.039 724.575 208.634 752.448 208.634H926.792C954.665 208.634 977.26 186.039 977.26 158.166V153.578C977.26 125.705 954.665 103.11 926.792 103.11Z" fill="url(#paint6_radial_1_211)"/>
<path d="M1045.01 223.072C1045.01 210.684 1055.33 201.394 1067.37 201.394C1079.76 201.394 1090.08 210.684 1090.08 223.072C1090.08 235.46 1079.76 244.406 1067.37 244.406C1055.33 244.406 1045.01 235.46 1045.01 223.072Z" fill="#C2C2C2" fill-opacity="0.8"/>
<defs>
<radialGradient id="paint0_radial_1_211" cx="0" cy="0" r="1" gradientUnits="userSpaceOnUse" gradientTransform="translate(1363.11 8.29454) rotate(96.7161) scale(313.555 249.572)">
<stop offset="0.0420757" stop-color="#13B4EE"/>
<stop offset="0.735" stop-color="#2DF8FA"/>
</radialGradient>
<radialGradient id="paint1_radial_1_211" cx="0" cy="0" r="1" gradientUnits="userSpaceOnUse" gradientTransform="translate(1246.44 81.7864) rotate(123.333) scale(260.048 818.164)">
<stop offset="0.0420757" stop-color="#13B4EE"/>
<stop offset="0.735" stop-color="#2DF8FA"/>
</radialGradient>
<radialGradient id="paint2_radial_1_211" cx="0" cy="0" r="1" gradientUnits="userSpaceOnUse" gradientTransform="translate(597.96 85.3416) rotate(119.637) scale(244.838 721.156)">
<stop offset="0.0420757" stop-color="#13B4EE"/>
<stop offset="0.735" stop-color="#2DF8FA"/>
</radialGradient>
<radialGradient id="paint3_radial_1_211" cx="0" cy="0" r="1" gradientUnits="userSpaceOnUse" gradientTransform="translate(404.739 85.3355) rotate(119.637) scale(244.838 721.156)">
<stop offset="0.0420757" stop-color="#13B4EE"/>
<stop offset="0.735" stop-color="#2DF8FA"/>
</radialGradient>
<radialGradient id="paint4_radial_1_211" cx="0" cy="0" r="1" gradientUnits="userSpaceOnUse" gradientTransform="translate(234.536 8.37303) rotate(94.8164) scale(312.265 179.04)">
<stop offset="0.0420757" stop-color="#13B4EE"/>
<stop offset="0.735" stop-color="#2DF8FA"/>
</radialGradient>
<radialGradient id="paint5_radial_1_211" cx="0" cy="0" r="1" gradientUnits="userSpaceOnUse" gradientTransform="translate(133.052 84.4101) rotate(114.332) scale(344.698 886.823)">
<stop offset="0.0420757" stop-color="#13B4EE"/>
<stop offset="0.735" stop-color="#2DF8FA"/>
</radialGradient>
<radialGradient id="paint6_radial_1_211" cx="0" cy="0" r="1" gradientUnits="userSpaceOnUse" gradientTransform="translate(939.719 10.187) rotate(125.072) scale(501.31 1615.59)">
<stop offset="0.0420757" stop-color="#13B4EE"/>
<stop offset="0.735" stop-color="#2DF8FA"/>
</radialGradient>
</defs>
</svg>
